<?xml version="1.0" encoding="utf-8"?>
<!-- Generator: Adobe Illustrator 23.0.2, SVG Export Plug-In . SVG Version: 6.00 Build 0)  -->
<svg version="1.1" id="Ebene_1" xmlns="http://www.w3.org/2000/svg" xmlns:xlink="http://www.w3.org/1999/xlink" x="0px" y="0px"
	 viewBox="0 0 3000 1863.24" style="enable-background:new 0 0 3000 1863.24;" xml:space="preserve">
<style type="text/css">
	.st0{fill:#9A9999;}
	.st1{fill:#868686;}
	.st2{fill:#F4F4F2;}
	.st3{fill:#3D3E3E;}
	.st4{opacity:0.2;}
	.st5{fill:#545353;}
	.st6{opacity:0.2;fill:#545353;}
	.st7{fill:#444444;}
	.st8{fill:#DBDBDB;}
	.st9{fill:#E41413;}
	.st10{fill:#FFFFFF;}
	.st11{opacity:0.2;fill:#020203;}
	.st12{fill:#767676;}
	.st13{fill:#5B5B5B;}
	.st14{fill:#FCFCFC;}
	.st15{opacity:0.2;fill:#535353;}
	.st16{fill:#438251;}
	.st17{fill:#5DAE61;}
	.st18{fill:#E94A31;}
	.st19{fill:#E3F3FB;}
	.st20{fill:#035A6A;}
	.st21{fill:#087082;}
	.st22{fill:#BBCAD3;}
	.st23{fill:#8C5521;}
	.st24{fill:#A9652B;}
	.st25{fill:#5EAE62;}
	.st26{fill:#428151;}
	.st27{fill:#E30613;}
	.st28{fill:#868C8B;}
	.st29{fill:#DADADA;}
	.st30{fill:#EDEDED;}
	.st31{fill:#D4E2E8;}
	.st32{fill:#585858;}
	.st33{fill:#A0A6A4;}
</style>
<g>
	<g>
		<g>
			<rect x="1406.67" y="1078.63" class="st0" width="277.65" height="101.4"/>
		</g>
		<g>
			<rect x="1406.67" y="1081.88" class="st1" width="277.65" height="94.9"/>
		</g>
		<g>
			<g>
				<rect x="1671.32" y="1126.74" class="st2" width="13" height="5.2"/>
			</g>
			<g>
				<path class="st2" d="M1475.6,1126.74v5.2h-27.96v-5.2H1475.6z M1531.52,1126.74v5.2h-27.96v-5.2H1531.52z M1587.44,1126.74v5.2
					h-27.96v-5.2H1587.44z M1643.36,1126.74v5.2h-27.96v-5.2H1643.36z"/>
			</g>
			<g>
				<rect x="1406.67" y="1126.74" class="st2" width="13" height="5.2"/>
			</g>
		</g>
	</g>
	<g>
		<g>
			<g>
				<rect x="511.28" y="1078.63" class="st0" width="277.65" height="101.4"/>
			</g>
			<g>
				<rect x="511.28" y="1081.88" class="st1" width="277.65" height="94.9"/>
			</g>
			<g>
				<g>
					<rect x="775.92" y="1126.74" class="st2" width="13" height="5.2"/>
				</g>
				<g>
					<path class="st2" d="M580.2,1126.74v5.2h-27.96v-5.2H580.2z M636.12,1126.74v5.2h-27.96v-5.2H636.12z M692.04,1126.74v5.2
						h-27.96v-5.2H692.04z M747.96,1126.74v5.2H720v-5.2H747.96z"/>
				</g>
				<g>
					<rect x="511.28" y="1126.74" class="st2" width="13" height="5.2"/>
				</g>
			</g>
		</g>
		<g>
			<g>
				<rect x="735.21" y="1078.63" class="st0" width="235.08" height="101.4"/>
			</g>
			<g>
				<rect x="735.21" y="1081.88" class="st1" width="241.86" height="94.9"/>
			</g>
			<g>
				<g>
					<path class="st2" d="M804.13,1126.74v5.2h-27.96v-5.2H804.13z M860.05,1126.74v5.2h-27.96v-5.2H860.05z M915.97,1126.74v5.2
						h-27.96v-5.2H915.97z M971.89,1126.74v5.2h-27.96v-5.2H971.89z"/>
				</g>
				<g>
					<rect x="735.21" y="1126.74" class="st2" width="13" height="5.2"/>
				</g>
			</g>
		</g>
		<g>
			<g>
				<path class="st0" d="M372.71,1078.64h139.24v101.4H372.71c-28,0-50.7-22.7-50.7-50.7
					C322.01,1101.33,344.7,1078.64,372.71,1078.64z"/>
			</g>
			<g>
				<path class="st1" d="M372.71,1081.89h139.24v94.9H372.71c-26.21,0-47.48-21.24-47.48-47.45
					C325.23,1103.15,346.5,1081.89,372.71,1081.89z"/>
			</g>
			<g>
				<g>
					<rect x="372.69" y="1126.75" class="st2" width="13" height="5.2"/>
				</g>
				<g>
					<path class="st2" d="M408.25,1131.94h22.57v-5.2h-22.57V1131.94z M363.55,1131.94h22.57v-5.2h-22.57V1131.94z M453.39,1131.94
						h22.57v-5.2h-22.57V1131.94z"/>
				</g>
				<g>
					<rect x="498.52" y="1126.75" class="st2" width="14.74" height="5.2"/>
				</g>
			</g>
		</g>
	</g>
	<g>
		<g>
			<rect x="960.24" y="1078.63" class="st0" width="277.65" height="101.4"/>
		</g>
		<g>
			<rect x="960.24" y="1081.88" class="st1" width="277.65" height="94.9"/>
		</g>
		<g>
			<g>
				<rect x="1224.88" y="1126.74" class="st2" width="13" height="5.2"/>
			</g>
			<g>
				<path class="st2" d="M1029.16,1126.74v5.2h-27.96v-5.2H1029.16z M1085.08,1126.74v5.2h-27.96v-5.2H1085.08z M1141,1126.74v5.2
					h-27.96v-5.2H1141z M1196.92,1126.74v5.2h-27.96v-5.2H1196.92z"/>
			</g>
			<g>
				<rect x="960.24" y="1126.74" class="st2" width="13" height="5.2"/>
			</g>
		</g>
	</g>
	<g>
		<g>
			<rect x="1183.86" y="1078.63" class="st0" width="277.65" height="101.4"/>
		</g>
		<g>
			<rect x="1183.86" y="1081.88" class="st1" width="277.65" height="94.9"/>
		</g>
		<g>
			<g>
				<rect x="1448.51" y="1126.74" class="st2" width="13" height="5.2"/>
			</g>
			<g>
				<path class="st2" d="M1252.78,1126.74v5.2h-27.96v-5.2H1252.78z M1308.71,1126.74v5.2h-27.96v-5.2H1308.71z M1364.63,1126.74
					v5.2h-27.96v-5.2H1364.63z M1420.55,1126.74v5.2h-27.96v-5.2H1420.55z"/>
			</g>
			<g>
				<rect x="1183.86" y="1126.74" class="st2" width="13" height="5.2"/>
			</g>
		</g>
	</g>
	<g>
		<g>
			<rect x="1630.3" y="1078.63" class="st0" width="277.65" height="101.4"/>
		</g>
		<g>
			<rect x="1630.3" y="1081.88" class="st1" width="277.65" height="94.9"/>
		</g>
		<g>
			<g>
				<rect x="1894.95" y="1126.74" class="st2" width="13" height="5.2"/>
			</g>
			<g>
				<path class="st2" d="M1699.22,1126.74v5.2h-27.96v-5.2H1699.22z M1755.14,1126.74v5.2h-27.96v-5.2H1755.14z M1811.07,1126.74
					v5.2h-27.96v-5.2H1811.07z M1866.99,1126.74v5.2h-27.96v-5.2H1866.99z"/>
			</g>
			<g>
				<rect x="1630.3" y="1126.74" class="st2" width="13" height="5.2"/>
			</g>
		</g>
	</g>
	<g>
		<g>
			<rect x="1853.11" y="1078.63" class="st0" width="277.65" height="101.4"/>
		</g>
		<g>
			<rect x="1853.11" y="1081.88" class="st1" width="277.65" height="94.9"/>
		</g>
		<g>
			<g>
				<rect x="2117.76" y="1126.74" class="st2" width="13" height="5.2"/>
			</g>
			<g>
				<path class="st2" d="M1922.04,1126.74v5.2h-27.96v-5.2H1922.04z M1977.96,1126.74v5.2H1950v-5.2H1977.96z M2033.88,1126.74v5.2
					h-27.96v-5.2H2033.88z M2089.8,1126.74v5.2h-27.96v-5.2H2089.8z"/>
			</g>
			<g>
				<rect x="1853.11" y="1126.74" class="st2" width="13" height="5.2"/>
			</g>
		</g>
	</g>
	<g>
		<g>
			<g>
				<rect x="2189.8" y="1078.64" class="st0" width="277.65" height="101.4"/>
			</g>
			<g>
				<rect x="2189.8" y="1081.89" class="st1" width="277.65" height="94.9"/>
			</g>
			<g>
				<g>
					<rect x="2189.8" y="1126.74" class="st2" width="13" height="5.2"/>
				</g>
				<g>
					<path class="st2" d="M2398.53,1131.94v-5.2h27.96v5.2H2398.53z M2342.61,1131.94v-5.2h27.96v5.2H2342.61z M2286.68,1131.94
						v-5.2h27.96v5.2H2286.68z M2230.76,1131.94v-5.2h27.96v5.2H2230.76z"/>
				</g>
				<g>
					<rect x="2454.45" y="1126.74" class="st2" width="13" height="5.2"/>
				</g>
			</g>
		</g>
		<g>
			<g>
				<rect x="2008.44" y="1078.63" class="st0" width="235.08" height="101.4"/>
			</g>
			<g>
				<rect x="2001.67" y="1081.89" class="st1" width="241.86" height="94.9"/>
			</g>
			<g>
				<g>
					<path class="st2" d="M2174.6,1131.94v-5.2h27.96v5.2H2174.6z M2118.68,1131.94v-5.2h27.96v5.2H2118.68z M2062.76,1131.94v-5.2
						h27.96v5.2H2062.76z M2006.84,1131.94v-5.2h27.96v5.2H2006.84z"/>
				</g>
				<g>
					<rect x="2230.52" y="1126.74" class="st2" width="13" height="5.2"/>
				</g>
			</g>
		</g>
		<g>
			<g>
				<path class="st0" d="M2606.02,1180.04h-139.24v-101.4h139.24c28,0,50.7,22.7,50.7,50.7S2634.02,1180.04,2606.02,1180.04z"/>
			</g>
			<g>
				<path class="st1" d="M2606.02,1176.79h-139.24v-94.9h139.24c26.21,0,47.48,21.24,47.48,47.45
					C2653.5,1155.52,2632.23,1176.79,2606.02,1176.79z"/>
			</g>
			<g>
				<g>
					<rect x="2593.03" y="1126.72" class="st2" width="13" height="5.2"/>
				</g>
				<g>
					<path class="st2" d="M2570.48,1126.73h-22.57v5.2h22.57V1126.73z M2615.18,1126.73h-22.57v5.2h22.57V1126.73z M2525.34,1126.73
						h-22.57v5.2h22.57V1126.73z"/>
				</g>
				<g>
					<rect x="2465.47" y="1126.72" class="st2" width="14.74" height="5.2"/>
				</g>
			</g>
		</g>
	</g>
</g>
<g>
	<g>
		<g>
			<rect x="1516.01" y="857.11" class="st1" width="23.18" height="115.91"/>
			<rect x="1593.71" y="857.11" class="st1" width="23.18" height="115.91"/>
			<rect x="2681.64" y="857.11" class="st1" width="23.18" height="115.91"/>
			<rect x="1671.43" y="857.11" class="st1" width="23.18" height="115.91"/>
			<rect x="1749.13" y="857.11" class="st1" width="23.18" height="115.91"/>
			<rect x="1826.84" y="857.11" class="st1" width="23.18" height="115.91"/>
			<rect x="1904.55" y="857.11" class="st1" width="23.18" height="115.91"/>
			<rect x="1982.26" y="857.11" class="st1" width="23.18" height="115.91"/>
			<rect x="2059.97" y="857.11" class="st1" width="23.18" height="115.91"/>
			<rect x="2137.68" y="857.11" class="st1" width="23.18" height="115.91"/>
			<rect x="2215.39" y="857.11" class="st1" width="23.18" height="115.91"/>
			<rect x="2293.1" y="857.11" class="st1" width="23.18" height="115.91"/>
			<rect x="2370.81" y="857.11" class="st1" width="23.18" height="115.91"/>
			<rect x="2448.51" y="857.11" class="st1" width="23.18" height="115.91"/>
			<rect x="2526.22" y="857.11" class="st1" width="23.18" height="115.91"/>
			<rect x="2603.93" y="857.11" class="st1" width="23.18" height="115.91"/>
			<rect x="1438.3" y="857.11" class="st1" width="23.18" height="115.91"/>
			<rect x="272.66" y="857.11" class="st1" width="23.18" height="115.91"/>
			<rect x="350.37" y="857.11" class="st1" width="23.18" height="115.91"/>
			<rect x="428.08" y="857.11" class="st1" width="23.18" height="115.91"/>
			<rect x="505.79" y="857.11" class="st1" width="23.18" height="115.91"/>
			<rect x="583.5" y="857.11" class="st1" width="23.18" height="115.91"/>
			<rect x="661.21" y="857.11" class="st1" width="23.18" height="115.91"/>
			<rect x="738.92" y="857.11" class="st1" width="23.18" height="115.91"/>
			<rect x="816.63" y="857.11" class="st1" width="23.18" height="115.91"/>
			<rect x="894.34" y="857.11" class="st1" width="23.18" height="115.91"/>
			<rect x="972.04" y="857.11" class="st1" width="23.18" height="115.91"/>
			<rect x="1049.75" y="857.11" class="st1" width="23.18" height="115.91"/>
			<rect x="1127.46" y="857.11" class="st1" width="23.18" height="115.91"/>
			<rect x="1205.17" y="857.11" class="st1" width="23.18" height="115.91"/>
			<rect x="1282.88" y="857.11" class="st1" width="23.18" height="115.91"/>
			<rect x="1360.59" y="857.11" class="st1" width="23.18" height="115.91"/>
		</g>
		<g>
			<rect x="222.73" y="939.42" class="st3" width="2525.09" height="9.27"/>
			<rect x="222.73" y="881.44" class="st3" width="2525.09" height="9.27"/>
		</g>
	</g>
	<g>
		<g class="st4">
			<path class="st5" d="M1511.77,830.38c1.41,39.53,1.41,79.64,0,119.18c-0.15,4.23-1.17,7.65-2.24,7.65c-17.42,0-34.85,0-52.27,0
				c-1.08,0-1.95-3.44-1.95-7.69c0-39.7,0-79.4,0-119.1c0-4.24,0.88-7.69,1.95-7.69c17.42,0,34.85,0,52.27,0
				C1510.6,822.73,1511.62,826.15,1511.77,830.38z"/>
			<path class="st5" d="M1523.49,898.32l0-16.71c0-1.41,1.19-2.94,2.77-3.45l21.06-6.78l0,37.17l-21.06-6.78
				C1524.67,901.26,1523.49,899.73,1523.49,898.32z"/>
			<path class="st5" d="M1523.49,898.32l0-16.71c0-1.41-1.19-2.94-2.77-3.45l-21.06-6.78l0,37.17l21.06-6.78
				C1522.3,901.26,1523.49,899.73,1523.49,898.32z"/>
			<path class="st5" d="M1523.49,900.14c-5.62,0-10.18-4.56-10.18-10.18c0-5.62,4.56-10.18,10.18-10.18
				c5.62,0,10.18,4.56,10.18,10.18C1533.66,895.59,1529.11,900.14,1523.49,900.14z"/>
			<path class="st5" d="M1523.49,895.28c-2.94,0-5.32-2.38-5.32-5.32c0-2.94,2.38-5.32,5.32-5.32c2.94,0,5.32,2.38,5.32,5.32
				C1528.8,892.9,1526.42,895.28,1523.49,895.28z"/>
			<path class="st5" d="M1551.95,860.04c-0.92,0.54-1.99-0.22-3.12-1.02c-0.38-0.27-0.96-0.68-1.32-0.85
				c-0.11,0.35-0.22,0.98-0.29,1.39c-0.24,1.42-0.46,2.76-1.54,3.07c-1.02,0.29-1.89-0.67-2.82-1.68c-0.3-0.33-0.77-0.84-1.08-1.09
				c-0.17,0.34-0.37,0.94-0.51,1.34c-0.46,1.34-0.88,2.61-1.97,2.77c-1.05,0.15-1.81-0.91-2.61-2.03c-0.26-0.36-0.65-0.91-0.93-1.19
				c-0.2,0.32-0.47,0.91-0.65,1.29c-0.58,1.28-1.14,2.49-2.22,2.55c-1.06,0.05-1.72-1.07-2.41-2.26c-0.22-0.37-0.56-0.95-0.8-1.25
				c-0.23,0.31-0.54,0.87-0.74,1.24c-0.67,1.23-1.31,2.38-2.38,2.36c-1.06-0.02-1.65-1.18-2.28-2.42c-0.19-0.39-0.49-0.97-0.71-1.29
				c-0.25,0.29-0.6,0.84-0.82,1.2c-0.74,1.18-1.44,2.29-2.51,2.21c-1.06-0.08-1.58-1.28-2.14-2.55c-0.17-0.39-0.43-0.98-0.64-1.31
				c-0.27,0.28-0.64,0.81-0.88,1.16c-0.8,1.13-1.56,2.2-2.61,2.07c-1.06-0.14-1.52-1.37-2-2.67c-0.15-0.4-0.37-0.99-0.56-1.33
				c-0.28,0.27-0.68,0.78-0.94,1.11c-0.86,1.09-1.66,2.12-2.7,1.93c-1.05-0.2-1.44-1.45-1.85-2.78c-0.12-0.4-0.31-1-0.47-1.35
				c-0.3,0.26-0.73,0.75-1.01,1.07c-0.91,1.04-1.77,2.02-2.8,1.77c-1.05-0.26-1.37-1.54-1.7-2.9c-0.1-0.41-0.25-1.02-0.39-1.37
				c-0.32,0.24-0.78,0.7-1.09,1.01c-0.97,0.97-1.89,1.89-2.9,1.57c-1.04-0.33-1.26-1.64-1.5-3.04c-0.07-0.41-0.18-1.02-0.29-1.39
				c-0.34,0.2-0.86,0.64-1.2,0.92c-1.09,0.92-2.04,1.71-3.01,1.31c-1.02-0.43-1.11-1.79-1.19-3.22c-0.03-0.53-0.09-1.42-0.21-1.64
				l0.99-1.49c0.89,0.45,0.96,1.64,1.05,3.02c0.02,0.42,0.06,1.06,0.14,1.46c0.32-0.21,0.76-0.58,1.06-0.83
				c1.06-0.89,2.07-1.74,3.06-1.38c0.96,0.35,1.16,1.55,1.39,2.93c0.07,0.42,0.18,1.04,0.3,1.42c0.3-0.24,0.73-0.66,1.01-0.94
				c0.98-0.98,1.9-1.9,2.92-1.62c0.99,0.27,1.29,1.46,1.63,2.84c0.1,0.41,0.25,1.02,0.4,1.39c0.29-0.25,0.69-0.71,0.96-1.02
				c0.91-1.04,1.77-2.02,2.8-1.8c1.01,0.21,1.38,1.39,1.8,2.75c0.12,0.4,0.31,0.99,0.47,1.34c0.28-0.27,0.65-0.75,0.91-1.07
				c0.85-1.08,1.66-2.11,2.69-1.94c1.03,0.16,1.48,1.37,1.96,2.65c0.14,0.39,0.36,0.98,0.55,1.32c0.27-0.29,0.63-0.8,0.87-1.14
				c0.79-1.12,1.54-2.18,2.58-2.07c1.04,0.11,1.56,1.3,2.1,2.56c0.17,0.38,0.42,0.95,0.62,1.29c0.25-0.3,0.58-0.83,0.81-1.19
				c0.73-1.16,1.42-2.25,2.46-2.2c1.04,0.05,1.63,1.21,2.25,2.44c0.19,0.37,0.46,0.92,0.68,1.24c0.23-0.31,0.54-0.87,0.74-1.24
				c0.66-1.19,1.27-2.32,2.31-2.34c1.05-0.02,1.71,1.11,2.41,2.3c0.21,0.35,0.51,0.87,0.75,1.18c0.21-0.34,0.47-0.91,0.65-1.29
				c0.59-1.29,1.09-2.39,2.11-2.49c1.05-0.1,1.81,0.97,2.61,2.09c0.24,0.33,0.58,0.82,0.85,1.1c0.18-0.36,0.38-0.96,0.52-1.36
				c0.45-1.32,0.83-2.46,1.83-2.67c1.03-0.21,1.91,0.75,2.84,1.78c0.28,0.3,0.7,0.76,0.98,1c0.04-0.32,0.16-1.01,0.23-1.46
				c0.22-1.35,0.42-2.52,1.33-2.89c0.96-0.39,2.02,0.37,3.14,1.16c0.43,0.31,1.15,0.82,1.4,0.86c-0.03-0.01-0.14,0-0.26,0.07
				L1551.95,860.04z"/>
			<path class="st5" d="M1551.95,919.88l-0.92,1.58c0.12,0.07,0.23,0.07,0.26,0.07c-0.25,0.04-0.97,0.56-1.4,0.86
				c-1.12,0.8-2.18,1.55-3.14,1.16c-0.91-0.37-1.11-1.53-1.33-2.89c-0.07-0.41-0.17-1.03-0.29-1.41c-0.29,0.25-0.67,0.67-0.92,0.95
				c-0.93,1.02-1.82,1.99-2.85,1.78c-0.99-0.2-1.37-1.35-1.82-2.67c-0.14-0.4-0.34-1.01-0.52-1.36c-0.26,0.29-0.61,0.77-0.85,1.1
				c-0.8,1.12-1.56,2.19-2.61,2.09c-1.02-0.1-1.53-1.2-2.11-2.49c-0.17-0.38-0.44-0.96-0.65-1.29c-0.24,0.31-0.55,0.83-0.75,1.18
				c-0.7,1.19-1.36,2.32-2.41,2.3c-1.03-0.01-1.65-1.14-2.31-2.34c-0.2-0.37-0.51-0.92-0.74-1.24c-0.22,0.32-0.5,0.87-0.68,1.24
				c-0.62,1.23-1.21,2.39-2.25,2.44c-1.04,0.05-1.73-1.05-2.45-2.2c-0.22-0.35-0.56-0.88-0.81-1.18c-0.2,0.33-0.45,0.91-0.62,1.28
				c-0.55,1.26-1.07,2.45-2.11,2.56s-1.79-0.95-2.58-2.08c-0.24-0.34-0.6-0.85-0.87-1.13c-0.18,0.35-0.4,0.93-0.55,1.32
				c-0.48,1.28-0.93,2.5-1.96,2.66c-1.03,0.16-1.84-0.86-2.69-1.94c-0.25-0.32-0.63-0.8-0.91-1.08c-0.16,0.36-0.35,0.95-0.47,1.34
				c-0.42,1.36-0.78,2.54-1.8,2.75c-1.03,0.21-1.89-0.76-2.81-1.8c-0.27-0.3-0.67-0.76-0.96-1.02c-0.15,0.37-0.3,0.98-0.4,1.39
				c-0.34,1.37-0.63,2.56-1.63,2.84c-1.02,0.28-1.94-0.64-2.92-1.62c-0.29-0.28-0.71-0.71-1.01-0.94c-0.12,0.38-0.22,1.01-0.3,1.42
				c-0.24,1.39-0.44,2.58-1.4,2.93c-0.99,0.36-2-0.49-3.06-1.38c-0.32-0.27-0.8-0.67-1.12-0.87c-0.01,0.32-0.06,1.03-0.08,1.5
				c-0.09,1.38-0.16,2.57-1.05,3.02l-0.83-1.63c-0.1,0.05-0.15,0.11-0.16,0.14c0.12-0.22,0.18-1.11,0.21-1.64
				c0.09-1.43,0.17-2.78,1.19-3.21c0.97-0.41,1.92,0.38,3.01,1.3c0.34,0.29,0.86,0.72,1.2,0.92c0.11-0.36,0.22-0.98,0.29-1.39
				c0.24-1.39,0.46-2.7,1.49-3.04c1.01-0.32,1.93,0.6,2.9,1.57c0.31,0.31,0.78,0.77,1.09,1.01c0.14-0.35,0.3-0.97,0.4-1.37
				c0.34-1.36,0.66-2.65,1.7-2.9c1.03-0.25,1.89,0.73,2.8,1.77c0.28,0.32,0.71,0.81,1.01,1.07c0.16-0.35,0.35-0.95,0.47-1.35
				c0.41-1.33,0.8-2.59,1.85-2.78c1.04-0.19,1.85,0.84,2.7,1.93c0.26,0.33,0.66,0.84,0.94,1.11c0.19-0.34,0.41-0.94,0.56-1.33
				c0.48-1.3,0.94-2.53,2-2.67c1.06-0.14,1.81,0.93,2.61,2.07c0.25,0.35,0.62,0.88,0.88,1.16c0.21-0.33,0.47-0.92,0.63-1.32
				c0.56-1.27,1.08-2.47,2.14-2.55c1.07-0.08,1.77,1.03,2.51,2.21c0.22,0.36,0.57,0.9,0.82,1.2c0.22-0.32,0.52-0.91,0.71-1.29
				c0.62-1.23,1.21-2.4,2.28-2.42c1.07-0.02,1.71,1.14,2.38,2.37c0.2,0.37,0.51,0.93,0.74,1.24c0.25-0.31,0.58-0.87,0.8-1.25
				c0.7-1.19,1.36-2.32,2.42-2.26c1.08,0.06,1.63,1.27,2.21,2.54c0.18,0.39,0.44,0.97,0.65,1.29c0.27-0.28,0.67-0.83,0.93-1.19
				c0.8-1.12,1.56-2.18,2.61-2.03c1.08,0.15,1.51,1.42,1.97,2.77c0.14,0.4,0.34,1,0.51,1.34c0.31-0.25,0.78-0.76,1.08-1.09
				c0.93-1.01,1.8-1.97,2.82-1.68c1.08,0.31,1.31,1.66,1.54,3.08c0.07,0.41,0.17,1.04,0.29,1.39c0.36-0.17,0.95-0.59,1.32-0.86
				C1549.96,920.1,1551.02,919.34,1551.95,919.88z"/>
			<path class="st5" d="M1090.71,830.38c1.41,39.53,1.41,79.64,0,119.18c-0.15,4.23-1.17,7.65-2.24,7.65c-17.42,0-34.85,0-52.27,0
				c-1.08,0-1.95-3.44-1.95-7.69c0-39.7,0-79.4,0-119.1c0-4.24,0.88-7.69,1.95-7.69c17.42,0,34.85,0,52.27,0
				C1089.55,822.74,1090.56,826.16,1090.71,830.38z"/>
			<path class="st5" d="M1170.82,830.38c1.41,39.53,1.41,79.64,0,119.18c-0.15,4.23-1.17,7.65-2.24,7.65c-17.42,0-34.85,0-52.27,0
				c-1.08,0-1.95-3.44-1.95-7.69c0-39.7,0-79.4,0-119.1c0-4.24,0.88-7.69,1.95-7.69c17.42,0,34.85,0,52.27,0
				C1169.65,822.74,1170.66,826.16,1170.82,830.38z"/>
			<path class="st5" d="M1102.43,898.33l0-16.71c0-1.41,1.19-2.94,2.77-3.45l21.06-6.78l0,37.17l-21.06-6.78
				C1103.62,901.27,1102.43,899.74,1102.43,898.33z"/>
			<path class="st5" d="M1102.43,898.33l0-16.71c0-1.41-1.19-2.94-2.77-3.45l-21.06-6.78l0,37.17l21.06-6.78
				C1101.24,901.27,1102.43,899.74,1102.43,898.33z"/>
			<path class="st5" d="M1102.43,900.15c-5.62,0-10.18-4.56-10.18-10.18c0-5.62,4.56-10.18,10.18-10.18
				c5.62,0,10.18,4.56,10.18,10.18C1112.61,895.59,1108.05,900.15,1102.43,900.15z"/>
			<path class="st5" d="M1102.43,895.29c-2.94,0-5.32-2.38-5.32-5.32c0-2.94,2.38-5.32,5.32-5.32c2.94,0,5.32,2.38,5.32,5.32
				C1107.75,892.91,1105.37,895.29,1102.43,895.29z"/>
			<path class="st5" d="M1130.89,860.05c-0.92,0.54-1.99-0.22-3.12-1.02c-0.38-0.27-0.96-0.68-1.32-0.85
				c-0.11,0.35-0.22,0.98-0.29,1.39c-0.24,1.42-0.46,2.76-1.54,3.07c-1.02,0.29-1.89-0.67-2.82-1.68c-0.3-0.33-0.77-0.84-1.08-1.09
				c-0.17,0.33-0.37,0.94-0.51,1.34c-0.46,1.34-0.88,2.61-1.97,2.77c-1.05,0.15-1.81-0.91-2.61-2.03c-0.26-0.36-0.65-0.91-0.93-1.19
				c-0.2,0.32-0.47,0.91-0.65,1.29c-0.58,1.28-1.14,2.49-2.22,2.55c-1.06,0.05-1.72-1.07-2.41-2.26c-0.22-0.37-0.56-0.95-0.8-1.25
				c-0.23,0.31-0.54,0.87-0.74,1.24c-0.67,1.23-1.31,2.38-2.38,2.36c-1.06-0.02-1.65-1.18-2.28-2.42c-0.19-0.39-0.49-0.97-0.71-1.29
				c-0.25,0.29-0.6,0.84-0.82,1.2c-0.74,1.18-1.44,2.29-2.51,2.21c-1.06-0.08-1.58-1.28-2.14-2.55c-0.17-0.39-0.43-0.98-0.64-1.31
				c-0.27,0.28-0.64,0.81-0.88,1.16c-0.8,1.13-1.56,2.2-2.61,2.07c-1.06-0.14-1.52-1.37-2-2.67c-0.15-0.4-0.37-0.99-0.56-1.33
				c-0.28,0.27-0.68,0.78-0.94,1.11c-0.86,1.09-1.66,2.12-2.7,1.93c-1.05-0.2-1.44-1.45-1.85-2.78c-0.12-0.4-0.31-1-0.47-1.35
				c-0.3,0.26-0.73,0.75-1.01,1.07c-0.91,1.04-1.77,2.02-2.8,1.77c-1.05-0.26-1.37-1.54-1.7-2.9c-0.1-0.41-0.25-1.02-0.39-1.37
				c-0.32,0.24-0.78,0.7-1.09,1.01c-0.97,0.97-1.89,1.89-2.9,1.57c-1.04-0.33-1.26-1.64-1.5-3.04c-0.07-0.41-0.18-1.02-0.29-1.39
				c-0.34,0.2-0.86,0.64-1.2,0.92c-1.09,0.92-2.04,1.71-3.01,1.31c-1.02-0.43-1.11-1.79-1.19-3.22c-0.03-0.53-0.09-1.42-0.21-1.64
				l0.99-1.49c0.89,0.45,0.96,1.64,1.05,3.02c0.02,0.42,0.06,1.06,0.14,1.46c0.32-0.21,0.76-0.58,1.06-0.83
				c1.06-0.89,2.07-1.74,3.06-1.38c0.96,0.35,1.16,1.55,1.39,2.93c0.07,0.42,0.18,1.04,0.3,1.42c0.3-0.24,0.73-0.66,1.01-0.94
				c0.98-0.98,1.9-1.9,2.92-1.62c0.99,0.27,1.29,1.46,1.63,2.84c0.1,0.41,0.25,1.02,0.4,1.39c0.29-0.25,0.69-0.71,0.96-1.02
				c0.91-1.04,1.77-2.02,2.8-1.8c1.01,0.21,1.38,1.39,1.8,2.75c0.12,0.4,0.31,0.99,0.47,1.34c0.28-0.27,0.65-0.75,0.91-1.07
				c0.85-1.08,1.66-2.11,2.69-1.94c1.03,0.16,1.48,1.37,1.96,2.65c0.14,0.39,0.36,0.98,0.55,1.32c0.27-0.29,0.63-0.8,0.87-1.14
				c0.79-1.12,1.54-2.18,2.58-2.07c1.04,0.11,1.56,1.3,2.1,2.56c0.17,0.38,0.42,0.95,0.62,1.29c0.25-0.3,0.58-0.83,0.81-1.19
				c0.73-1.16,1.42-2.25,2.46-2.2c1.04,0.05,1.63,1.21,2.25,2.44c0.19,0.37,0.46,0.92,0.68,1.24c0.23-0.31,0.54-0.87,0.74-1.24
				c0.66-1.19,1.27-2.32,2.31-2.34c1.05-0.02,1.71,1.11,2.41,2.3c0.21,0.35,0.51,0.87,0.75,1.18c0.21-0.34,0.47-0.91,0.65-1.29
				c0.59-1.29,1.09-2.39,2.11-2.49c1.05-0.1,1.81,0.97,2.61,2.09c0.24,0.33,0.58,0.82,0.85,1.1c0.18-0.36,0.38-0.96,0.52-1.36
				c0.45-1.32,0.83-2.46,1.83-2.67c1.03-0.21,1.91,0.75,2.84,1.78c0.28,0.3,0.7,0.76,0.98,1c0.04-0.32,0.16-1.01,0.23-1.46
				c0.22-1.35,0.42-2.52,1.33-2.89c0.96-0.39,2.02,0.37,3.14,1.16c0.43,0.31,1.15,0.82,1.4,0.86c-0.03-0.01-0.14,0-0.26,0.07
				L1130.89,860.05z"/>
			<path class="st5" d="M1130.89,919.89l-0.92,1.58c0.12,0.07,0.23,0.07,0.26,0.07c-0.25,0.04-0.97,0.56-1.4,0.86
				c-1.12,0.8-2.18,1.55-3.14,1.16c-0.91-0.37-1.11-1.53-1.33-2.89c-0.07-0.41-0.17-1.03-0.29-1.41c-0.29,0.25-0.67,0.67-0.92,0.95
				c-0.93,1.02-1.82,1.99-2.85,1.78c-0.99-0.2-1.37-1.35-1.82-2.67c-0.14-0.4-0.34-1.01-0.52-1.36c-0.26,0.29-0.61,0.77-0.85,1.1
				c-0.8,1.12-1.56,2.19-2.61,2.09c-1.02-0.1-1.53-1.2-2.11-2.49c-0.17-0.38-0.44-0.96-0.65-1.29c-0.24,0.31-0.55,0.83-0.75,1.18
				c-0.7,1.19-1.36,2.32-2.41,2.3c-1.03-0.01-1.65-1.14-2.31-2.34c-0.2-0.37-0.51-0.92-0.74-1.24c-0.22,0.32-0.5,0.87-0.68,1.24
				c-0.62,1.23-1.21,2.39-2.25,2.44c-1.04,0.05-1.73-1.05-2.45-2.2c-0.22-0.35-0.56-0.88-0.81-1.18c-0.2,0.33-0.45,0.91-0.62,1.28
				c-0.55,1.26-1.07,2.45-2.11,2.56c-1.04,0.11-1.79-0.95-2.58-2.08c-0.24-0.34-0.6-0.85-0.87-1.13c-0.18,0.35-0.4,0.93-0.55,1.32
				c-0.48,1.28-0.93,2.5-1.96,2.66c-1.03,0.16-1.84-0.86-2.69-1.94c-0.25-0.32-0.63-0.8-0.91-1.08c-0.16,0.36-0.35,0.95-0.47,1.34
				c-0.42,1.36-0.78,2.54-1.8,2.75c-1.03,0.21-1.89-0.76-2.81-1.8c-0.27-0.3-0.67-0.76-0.96-1.02c-0.15,0.37-0.3,0.98-0.4,1.39
				c-0.34,1.37-0.63,2.56-1.63,2.84c-1.02,0.28-1.94-0.64-2.92-1.62c-0.29-0.28-0.71-0.71-1.01-0.94c-0.12,0.38-0.22,1.01-0.3,1.42
				c-0.24,1.39-0.44,2.58-1.4,2.93c-0.99,0.36-2-0.49-3.06-1.38c-0.32-0.27-0.8-0.67-1.12-0.87c-0.01,0.32-0.06,1.03-0.08,1.5
				c-0.09,1.38-0.16,2.57-1.05,3.02l-0.83-1.63c-0.1,0.05-0.15,0.11-0.16,0.14c0.12-0.22,0.18-1.11,0.21-1.64
				c0.09-1.43,0.17-2.78,1.19-3.21c0.97-0.41,1.92,0.38,3.01,1.3c0.34,0.29,0.86,0.72,1.2,0.92c0.11-0.36,0.22-0.98,0.29-1.39
				c0.24-1.39,0.46-2.7,1.49-3.04c1.01-0.32,1.93,0.6,2.9,1.57c0.31,0.31,0.78,0.77,1.09,1.01c0.14-0.35,0.3-0.97,0.4-1.37
				c0.34-1.36,0.66-2.65,1.7-2.9c1.03-0.25,1.89,0.73,2.8,1.77c0.28,0.32,0.71,0.81,1.01,1.07c0.16-0.35,0.35-0.95,0.47-1.35
				c0.41-1.33,0.8-2.59,1.85-2.78c1.04-0.19,1.85,0.84,2.7,1.93c0.26,0.33,0.66,0.84,0.94,1.11c0.19-0.34,0.41-0.94,0.56-1.33
				c0.48-1.3,0.95-2.53,2-2.67c1.06-0.14,1.81,0.93,2.61,2.07c0.25,0.35,0.62,0.88,0.88,1.16c0.21-0.33,0.47-0.92,0.64-1.32
				c0.56-1.27,1.08-2.47,2.14-2.55c1.07-0.08,1.77,1.03,2.51,2.21c0.22,0.36,0.57,0.9,0.82,1.2c0.22-0.32,0.52-0.91,0.71-1.29
				c0.62-1.23,1.21-2.4,2.28-2.42c1.07-0.02,1.71,1.14,2.38,2.37c0.2,0.37,0.51,0.93,0.74,1.24c0.25-0.31,0.58-0.87,0.8-1.25
				c0.7-1.19,1.36-2.32,2.42-2.26c1.08,0.06,1.63,1.27,2.21,2.54c0.18,0.39,0.44,0.97,0.65,1.29c0.27-0.28,0.67-0.83,0.93-1.19
				c0.8-1.12,1.56-2.18,2.61-2.03c1.08,0.15,1.51,1.42,1.97,2.77c0.14,0.4,0.34,1,0.51,1.34c0.31-0.25,0.78-0.76,1.08-1.09
				c0.93-1.01,1.8-1.97,2.82-1.68c1.08,0.31,1.31,1.66,1.54,3.08c0.07,0.41,0.17,1.04,0.29,1.39c0.36-0.17,0.95-0.59,1.32-0.86
				C1128.9,920.11,1129.97,919.35,1130.89,919.89z"/>
			<path class="st5" d="M1083.19,841.39c0,32.8,0,65.59,0,98.38c-0.1,11.28-9.24,20.42-20.38,20.38c-158.64,0-233.23,0-391.87,0.01
				c-36.2,1.58-120.16-16.73-120.12-69.57l0,0c-0.04-52.84,83.92-71.16,120.12-69.57c158.64,0,233.23,0,391.87-0.01
				C1073.96,820.96,1083.09,830.1,1083.19,841.39z"/>
			<path class="st5" d="M1070.7,848.29c0,28.19,0,56.38,0,84.57c-0.08,9.7-7.94,17.56-17.52,17.52c-136.37,0-188.69,0-325.06,0.01
				c-31.12,1.36-103.29-14.38-103.26-59.8l0,0c-0.03-45.42,72.14-61.17,103.26-59.81c136.37,0,188.7,0,325.06-0.01
				C1062.76,830.74,1070.62,838.59,1070.7,848.29z"/>
			<path class="st5" d="M682.88,950.47c-24.3,0-73.55-22.88-73.55-59.89l-42.21,0C567.12,923.88,605,950.47,682.88,950.47z"/>
			<path class="st5" d="M682.88,830.7c-24.3,0-73.55,22.88-73.55,59.89l-42.21,0C567.11,857.29,604.99,830.7,682.88,830.7z"/>
			<rect x="978.81" y="950.47" class="st5" width="70.74" height="4.61"/>
			<rect x="889.85" y="950.47" class="st5" width="70.73" height="4.61"/>
			<rect x="800.88" y="950.47" class="st5" width="70.74" height="4.61"/>
			<rect x="711.92" y="950.47" class="st5" width="70.74" height="4.61"/>
			<rect x="978.8" y="826.09" class="st5" width="70.74" height="4.61"/>
			<rect x="889.84" y="826.09" class="st5" width="70.73" height="4.61"/>
			<rect x="800.88" y="826.09" class="st5" width="70.74" height="4.61"/>
			<rect x="711.92" y="826.09" class="st5" width="70.74" height="4.61"/>
			<path class="st6" d="M791.39,847.17l0,76.33c0,5.63,4.56,10.19,10.19,10.19l7.14,0c5.63,0,10.19-4.56,10.19-10.19l0-76.33
				c0-5.63-4.56-10.19-10.19-10.19l-7.14,0C795.95,836.98,791.39,841.55,791.39,847.17z"/>
			<path class="st5" d="M796.03,851.82l0,76.33c0,5.63,4.56,10.19,10.19,10.19l7.14,0c5.63,0,10.19-4.56,10.19-10.19l0-76.33
				c0-5.63-4.56-10.19-10.19-10.19l-7.14,0C800.59,841.63,796.03,846.19,796.03,851.82z"/>
			<rect x="823.56" y="918.26" class="st5" width="247.15" height="1.83"/>
			<rect x="823.56" y="913.84" class="st5" width="247.15" height="1.83"/>
			<rect x="823.56" y="860.29" class="st5" width="247.15" height="1.83"/>
			<rect x="814.57" y="929.33" class="st5" width="2.85" height="2.89"/>
			<rect x="814.57" y="923.3" class="st5" width="2.85" height="2.89"/>
			<rect x="814.57" y="917.26" class="st5" width="2.85" height="2.89"/>
			<rect x="814.57" y="911.22" class="st5" width="2.85" height="2.89"/>
			<rect x="814.56" y="847.74" class="st5" width="2.85" height="2.89"/>
			<rect x="814.56" y="853.77" class="st5" width="2.85" height="2.89"/>
			<rect x="814.56" y="859.81" class="st5" width="2.85" height="2.89"/>
			<rect x="814.56" y="865.85" class="st5" width="2.85" height="2.89"/>
			<path class="st5" d="M598.14,944.53c2.69,0.98,7.94-1.42,6.92-3.87c-1.02-2.44-23-7.74-25.04-6.72
				C577.98,934.96,595.9,943.71,598.14,944.53z"/>
			<path class="st5" d="M598.13,836.65c2.69-0.98,7.94,1.43,6.92,3.87c-1.02,2.44-23,7.74-25.04,6.72
				C577.98,846.22,595.9,837.46,598.13,836.65z"/>
			<path class="st5" d="M1142.05,960.15l342.92-0.01c11.26,0,20.38-9.13,20.38-20.38l0-98.38c0-11.26-9.13-20.38-20.38-20.38
				l-342.92,0.01c-11.14-0.04-20.28,9.1-20.38,20.38l0,98.38C1121.77,951.05,1130.91,960.19,1142.05,960.15z"/>
			<path class="st5" d="M1151.32,950.38l326.49-0.01c11.03,0,19.96-9.13,19.96-20.38l0-78.85c0-11.26-8.94-20.38-19.96-20.38
				l-326.49,0.01c-9.38-0.04-17.08,7.82-17.16,17.52l0,84.57C1134.24,942.56,1141.93,950.42,1151.32,950.38z"/>
			<rect x="1150.39" y="950.46" class="st5" width="70.74" height="4.61"/>
			<rect x="1239.36" y="950.46" class="st5" width="70.73" height="4.61"/>
			<rect x="1328.32" y="950.46" class="st5" width="70.74" height="4.61"/>
			<rect x="1417.28" y="950.46" class="st5" width="70.74" height="4.61"/>
			<rect x="1150.39" y="826.08" class="st5" width="70.74" height="4.61"/>
			<rect x="1239.35" y="826.08" class="st5" width="70.73" height="4.61"/>
			<rect x="1328.32" y="826.08" class="st5" width="70.74" height="4.61"/>
			<rect x="1417.28" y="826.08" class="st5" width="70.74" height="4.61"/>
			<path class="st6" d="M1236.51,847.16l0,76.33c0,5.63,4.56,10.19,10.19,10.19l7.14,0c5.63,0,10.19-4.56,10.19-10.19l0-76.33
				c0-5.63-4.56-10.19-10.19-10.19l-7.14,0C1241.08,836.97,1236.51,841.54,1236.51,847.16z"/>
			<path class="st5" d="M1241.16,851.81l0,76.33c0,5.63,4.56,10.19,10.19,10.19l7.14,0c5.63,0,10.19-4.56,10.19-10.19l0-76.33
				c0-5.63-4.56-10.19-10.19-10.19l-7.14,0C1245.72,841.62,1241.16,846.18,1241.16,851.81z"/>
			<rect x="1268.68" y="918.25" class="st5" width="229.1" height="1.83"/>
			<rect x="1268.68" y="913.83" class="st5" width="229.1" height="1.83"/>
			<rect x="1268.68" y="860.28" class="st5" width="229.1" height="1.83"/>
			<rect x="1259.69" y="929.32" class="st5" width="2.85" height="2.89"/>
			<rect x="1259.69" y="923.29" class="st5" width="2.85" height="2.89"/>
			<rect x="1259.69" y="917.25" class="st5" width="2.85" height="2.89"/>
			<rect x="1259.69" y="911.21" class="st5" width="2.85" height="2.89"/>
			<rect x="1259.69" y="847.73" class="st5" width="2.85" height="2.89"/>
			<rect x="1259.69" y="853.77" class="st5" width="2.85" height="2.89"/>
			<rect x="1259.69" y="859.8" class="st5" width="2.85" height="2.89"/>
			<rect x="1259.69" y="865.84" class="st5" width="2.85" height="2.89"/>
			<path class="st5" d="M1932.03,830.37c1.41,39.53,1.41,79.64,0,119.18c-0.15,4.23-1.17,7.65-2.24,7.65c-17.42,0-34.85,0-52.27,0
				c-1.08,0-1.95-3.44-1.95-7.69c0-39.7,0-79.4,0-119.1c0-4.24,0.88-7.69,1.95-7.69c17.42,0,34.85,0,52.27,0
				C1930.86,822.72,1931.88,826.14,1932.03,830.37z"/>
			<path class="st5" d="M2012.13,830.37c1.41,39.53,1.41,79.64,0,119.18c-0.15,4.23-1.17,7.65-2.24,7.65c-17.42,0-34.85,0-52.27,0
				c-1.08,0-1.95-3.44-1.95-7.69c0-39.7,0-79.4,0-119.1c0-4.24,0.88-7.69,1.95-7.69c17.42,0,34.85,0,52.27,0
				C2010.97,822.72,2011.98,826.14,2012.13,830.37z"/>
			<path class="st5" d="M1943.75,898.31l0-16.71c0-1.41,1.19-2.94,2.77-3.45l21.06-6.78l0,37.17l-21.06-6.78
				C1944.93,901.25,1943.75,899.72,1943.75,898.31z"/>
			<path class="st5" d="M1943.75,898.31l0-16.71c0-1.41-1.19-2.94-2.77-3.45l-21.06-6.78l0,37.17l21.06-6.78
				C1942.56,901.25,1943.75,899.72,1943.75,898.31z"/>
			<path class="st5" d="M1943.75,900.13c-5.62,0-10.18-4.56-10.18-10.18c0-5.62,4.56-10.18,10.18-10.18
				c5.62,0,10.18,4.56,10.18,10.18S1949.37,900.13,1943.75,900.13z"/>
			<path class="st5" d="M1943.75,895.27c-2.94,0-5.32-2.38-5.32-5.32c0-2.94,2.38-5.32,5.32-5.32c2.94,0,5.32,2.38,5.32,5.32
				C1949.06,892.89,1946.68,895.27,1943.75,895.27z"/>
			<path class="st5" d="M1972.21,860.04c-0.92,0.54-1.99-0.22-3.12-1.02c-0.38-0.27-0.96-0.68-1.32-0.85
				c-0.11,0.35-0.22,0.98-0.29,1.39c-0.24,1.42-0.46,2.76-1.54,3.07c-1.02,0.29-1.89-0.67-2.82-1.68c-0.3-0.33-0.77-0.84-1.08-1.09
				c-0.17,0.34-0.37,0.94-0.51,1.34c-0.46,1.34-0.88,2.61-1.97,2.77c-1.05,0.15-1.81-0.91-2.61-2.03c-0.26-0.36-0.65-0.91-0.93-1.19
				c-0.2,0.32-0.47,0.91-0.65,1.29c-0.58,1.28-1.14,2.49-2.22,2.55c-1.06,0.05-1.72-1.07-2.41-2.26c-0.22-0.37-0.56-0.95-0.8-1.25
				c-0.23,0.31-0.54,0.87-0.74,1.24c-0.67,1.23-1.31,2.38-2.38,2.36c-1.06-0.02-1.65-1.18-2.28-2.42c-0.19-0.39-0.49-0.97-0.71-1.29
				c-0.25,0.29-0.6,0.84-0.82,1.2c-0.74,1.18-1.44,2.29-2.51,2.21c-1.06-0.08-1.58-1.28-2.14-2.55c-0.17-0.39-0.43-0.98-0.64-1.31
				c-0.27,0.28-0.64,0.81-0.88,1.16c-0.8,1.13-1.56,2.2-2.61,2.07c-1.06-0.14-1.52-1.37-2-2.67c-0.15-0.4-0.37-0.99-0.56-1.33
				c-0.28,0.27-0.68,0.78-0.94,1.11c-0.86,1.09-1.66,2.12-2.7,1.93c-1.05-0.2-1.44-1.45-1.85-2.78c-0.12-0.4-0.31-1-0.47-1.35
				c-0.3,0.26-0.73,0.75-1.01,1.07c-0.91,1.04-1.77,2.02-2.8,1.77c-1.05-0.26-1.37-1.54-1.71-2.9c-0.1-0.41-0.25-1.02-0.39-1.37
				c-0.32,0.24-0.78,0.7-1.09,1.01c-0.97,0.97-1.89,1.89-2.9,1.57c-1.04-0.33-1.26-1.64-1.5-3.04c-0.07-0.41-0.18-1.02-0.29-1.39
				c-0.34,0.2-0.86,0.64-1.2,0.92c-1.09,0.92-2.04,1.71-3.01,1.31c-1.02-0.43-1.11-1.79-1.19-3.22c-0.03-0.53-0.09-1.42-0.21-1.64
				l0.99-1.49c0.89,0.45,0.96,1.64,1.05,3.02c0.02,0.42,0.06,1.06,0.14,1.46c0.32-0.21,0.76-0.58,1.06-0.83
				c1.06-0.89,2.07-1.74,3.06-1.38c0.96,0.35,1.16,1.55,1.39,2.93c0.07,0.42,0.18,1.04,0.3,1.42c0.3-0.23,0.73-0.66,1.01-0.94
				c0.98-0.98,1.9-1.9,2.92-1.62c0.99,0.27,1.29,1.46,1.63,2.84c0.1,0.41,0.25,1.02,0.4,1.39c0.29-0.25,0.69-0.71,0.96-1.02
				c0.91-1.04,1.77-2.02,2.8-1.8c1.01,0.21,1.38,1.39,1.8,2.75c0.12,0.4,0.31,0.99,0.47,1.34c0.28-0.27,0.65-0.75,0.91-1.07
				c0.85-1.08,1.66-2.11,2.69-1.94c1.03,0.16,1.48,1.37,1.96,2.65c0.14,0.39,0.36,0.98,0.55,1.32c0.27-0.29,0.63-0.8,0.87-1.14
				c0.79-1.12,1.54-2.18,2.58-2.07c1.04,0.11,1.56,1.3,2.1,2.56c0.17,0.38,0.42,0.95,0.62,1.29c0.25-0.3,0.58-0.83,0.81-1.19
				c0.73-1.16,1.42-2.25,2.46-2.2c1.04,0.05,1.63,1.21,2.25,2.44c0.19,0.37,0.46,0.92,0.68,1.24c0.23-0.31,0.54-0.87,0.74-1.24
				c0.66-1.19,1.27-2.32,2.31-2.34c1.05-0.02,1.71,1.11,2.41,2.3c0.21,0.35,0.51,0.87,0.75,1.18c0.21-0.34,0.47-0.91,0.65-1.29
				c0.59-1.29,1.09-2.39,2.11-2.49c1.05-0.1,1.81,0.97,2.61,2.09c0.24,0.33,0.58,0.82,0.85,1.1c0.18-0.36,0.38-0.96,0.52-1.36
				c0.45-1.32,0.83-2.46,1.83-2.67c1.03-0.21,1.91,0.75,2.84,1.78c0.28,0.3,0.7,0.76,0.98,1c0.04-0.32,0.16-1.01,0.23-1.46
				c0.22-1.35,0.42-2.52,1.33-2.89c0.96-0.39,2.02,0.37,3.14,1.16c0.43,0.31,1.15,0.82,1.4,0.86c-0.03-0.01-0.14,0-0.26,0.07
				L1972.21,860.04z"/>
			<path class="st5" d="M1972.21,919.88l-0.92,1.58c0.12,0.07,0.23,0.07,0.26,0.07c-0.25,0.04-0.97,0.56-1.4,0.86
				c-1.12,0.8-2.18,1.55-3.14,1.16c-0.91-0.37-1.11-1.53-1.33-2.89c-0.07-0.41-0.17-1.03-0.29-1.41c-0.29,0.25-0.67,0.67-0.92,0.95
				c-0.93,1.02-1.82,1.99-2.85,1.78c-0.99-0.2-1.37-1.35-1.82-2.67c-0.14-0.4-0.34-1.01-0.52-1.36c-0.26,0.29-0.61,0.77-0.85,1.1
				c-0.8,1.12-1.56,2.19-2.61,2.09c-1.02-0.1-1.53-1.2-2.11-2.49c-0.17-0.38-0.44-0.96-0.65-1.29c-0.24,0.31-0.55,0.83-0.75,1.18
				c-0.7,1.19-1.36,2.32-2.41,2.3c-1.03-0.01-1.65-1.14-2.31-2.34c-0.2-0.37-0.51-0.92-0.74-1.24c-0.22,0.32-0.5,0.87-0.68,1.24
				c-0.62,1.23-1.21,2.39-2.25,2.44c-1.04,0.05-1.73-1.05-2.45-2.2c-0.22-0.35-0.56-0.88-0.81-1.18c-0.2,0.33-0.45,0.91-0.62,1.28
				c-0.55,1.26-1.07,2.45-2.11,2.56s-1.79-0.95-2.58-2.08c-0.24-0.33-0.6-0.85-0.87-1.13c-0.18,0.35-0.4,0.93-0.55,1.32
				c-0.48,1.28-0.93,2.5-1.96,2.66c-1.03,0.16-1.84-0.86-2.69-1.94c-0.25-0.32-0.63-0.8-0.91-1.08c-0.16,0.36-0.35,0.95-0.47,1.34
				c-0.42,1.36-0.78,2.54-1.8,2.75c-1.03,0.21-1.89-0.76-2.81-1.8c-0.27-0.3-0.67-0.76-0.96-1.02c-0.15,0.37-0.3,0.98-0.4,1.39
				c-0.34,1.37-0.64,2.56-1.63,2.84c-1.02,0.28-1.94-0.64-2.92-1.62c-0.29-0.28-0.71-0.71-1.01-0.94c-0.12,0.38-0.22,1.01-0.3,1.42
				c-0.24,1.39-0.44,2.58-1.4,2.93c-0.99,0.36-2-0.49-3.06-1.38c-0.32-0.27-0.8-0.67-1.12-0.87c-0.01,0.32-0.06,1.03-0.08,1.5
				c-0.09,1.38-0.16,2.57-1.05,3.02l-0.83-1.63c-0.1,0.05-0.15,0.11-0.16,0.14c0.12-0.22,0.18-1.11,0.21-1.64
				c0.09-1.43,0.17-2.78,1.19-3.21c0.97-0.41,1.92,0.38,3.01,1.3c0.34,0.29,0.86,0.72,1.2,0.92c0.11-0.36,0.22-0.98,0.29-1.39
				c0.24-1.39,0.46-2.7,1.49-3.04c1.01-0.32,1.93,0.6,2.9,1.57c0.31,0.31,0.78,0.77,1.09,1.01c0.14-0.35,0.3-0.97,0.4-1.37
				c0.34-1.36,0.66-2.65,1.7-2.9c1.03-0.25,1.89,0.73,2.8,1.77c0.28,0.32,0.71,0.81,1.01,1.07c0.16-0.35,0.35-0.95,0.47-1.35
				c0.41-1.33,0.8-2.59,1.85-2.78c1.04-0.19,1.85,0.84,2.7,1.93c0.26,0.34,0.66,0.84,0.94,1.11c0.19-0.34,0.41-0.94,0.56-1.33
				c0.48-1.3,0.95-2.53,2-2.67c1.06-0.14,1.81,0.93,2.61,2.07c0.25,0.35,0.62,0.88,0.88,1.16c0.21-0.33,0.47-0.92,0.64-1.32
				c0.56-1.27,1.08-2.47,2.14-2.55c1.07-0.08,1.77,1.03,2.51,2.21c0.22,0.36,0.57,0.9,0.82,1.2c0.22-0.32,0.52-0.91,0.71-1.29
				c0.62-1.23,1.21-2.4,2.28-2.42c1.07-0.02,1.71,1.14,2.38,2.37c0.2,0.37,0.51,0.93,0.74,1.24c0.25-0.31,0.58-0.87,0.8-1.25
				c0.7-1.19,1.36-2.32,2.42-2.26c1.08,0.06,1.63,1.27,2.21,2.54c0.18,0.39,0.44,0.97,0.65,1.29c0.27-0.28,0.67-0.83,0.93-1.19
				c0.8-1.12,1.56-2.18,2.61-2.03c1.08,0.15,1.51,1.42,1.97,2.77c0.14,0.4,0.34,1,0.51,1.34c0.31-0.25,0.78-0.76,1.08-1.09
				c0.93-1.01,1.8-1.97,2.82-1.68c1.08,0.31,1.31,1.66,1.54,3.08c0.07,0.41,0.17,1.04,0.29,1.39c0.36-0.17,0.95-0.59,1.32-0.86
				C1970.22,920.09,1971.28,919.33,1972.21,919.88z"/>
			<path class="st5" d="M1983.37,960.13l342.92-0.01c11.26,0,20.38-9.13,20.38-20.38l0-98.38c0-11.26-9.13-20.38-20.38-20.38
				l-342.92,0.01c-11.14-0.04-20.28,9.1-20.38,20.38l0,98.38C1963.08,951.04,1972.22,960.18,1983.37,960.13z"/>
			<path class="st5" d="M1992.64,950.37l326.49-0.01c11.03,0,19.96-9.13,19.96-20.38l0-78.85c0-11.26-8.94-20.38-19.97-20.38
				l-326.49,0.01c-9.38-0.04-17.08,7.82-17.16,17.52l0,84.57C1975.56,942.55,1983.25,950.4,1992.64,950.37z"/>
			<rect x="1991.71" y="950.45" class="st5" width="70.74" height="4.61"/>
			<rect x="2080.67" y="950.44" class="st5" width="70.73" height="4.61"/>
			<rect x="2169.63" y="950.44" class="st5" width="70.74" height="4.61"/>
			<rect x="2258.6" y="950.44" class="st5" width="70.74" height="4.61"/>
			<rect x="1991.71" y="826.06" class="st5" width="70.74" height="4.61"/>
			<rect x="2080.67" y="826.06" class="st5" width="70.73" height="4.61"/>
			<rect x="2169.63" y="826.06" class="st5" width="70.74" height="4.61"/>
			<rect x="2258.59" y="826.06" class="st5" width="70.74" height="4.61"/>
			<path class="st6" d="M2077.83,847.15l0,76.33c0,5.63,4.56,10.19,10.19,10.19l7.14,0c5.63,0,10.19-4.56,10.19-10.19l0-76.33
				c0-5.63-4.56-10.19-10.19-10.19l-7.14,0C2082.39,836.96,2077.83,841.52,2077.83,847.15z"/>
			<path class="st5" d="M2082.47,851.79l0,76.33c0,5.63,4.56,10.19,10.19,10.19l7.14,0c5.63,0,10.19-4.56,10.19-10.19l0-76.33
				c0-5.63-4.56-10.19-10.19-10.19l-7.14,0C2087.04,841.6,2082.47,846.16,2082.47,851.79z"/>
			<rect x="2110" y="918.24" class="st5" width="229.1" height="1.83"/>
			<rect x="2110" y="913.82" class="st5" width="229.1" height="1.83"/>
			<rect x="2110" y="860.26" class="st5" width="229.1" height="1.83"/>
			<rect x="2101.01" y="929.31" class="st5" width="2.85" height="2.89"/>
			<rect x="2101.01" y="923.27" class="st5" width="2.85" height="2.89"/>
			<rect x="2101.01" y="917.23" class="st5" width="2.85" height="2.89"/>
			<rect x="2101.01" y="911.19" class="st5" width="2.85" height="2.89"/>
			<rect x="2101.01" y="847.71" class="st5" width="2.85" height="2.89"/>
			<rect x="2101.01" y="853.75" class="st5" width="2.85" height="2.89"/>
			<rect x="2101.01" y="859.79" class="st5" width="2.85" height="2.89"/>
			<rect x="2101.01" y="865.82" class="st5" width="2.85" height="2.89"/>
			<path class="st5" d="M1591.08,830.37c1.41,39.53,1.41,79.64,0,119.18c-0.15,4.23-1.17,7.65-2.24,7.65c-17.42,0-34.85,0-52.27,0
				c-1.08,0-1.95-3.44-1.95-7.69c0-39.7,0-79.4,0-119.1c0-4.24,0.88-7.69,1.95-7.69c17.42,0,34.85,0,52.27,0
				C1589.91,822.73,1590.92,826.15,1591.08,830.37z"/>
			<path class="st5" d="M1562.31,960.14l342.92-0.01c11.26,0,20.38-9.13,20.38-20.38l0-98.38c0-11.26-9.13-20.38-20.38-20.38
				L1562.31,821c-11.14-0.04-20.28,9.1-20.38,20.38l0,98.38C1542.03,951.05,1551.17,960.18,1562.31,960.14z"/>
			<path class="st5" d="M1571.58,950.38l326.49-0.01c11.03,0,19.96-9.13,19.96-20.38l0-78.85c0-11.26-8.94-20.38-19.97-20.38
				l-326.49,0.01c-9.38-0.04-17.08,7.82-17.16,17.52l0,84.57C1554.5,942.56,1562.19,950.41,1571.58,950.38z"/>
			<rect x="1570.65" y="950.45" class="st5" width="70.74" height="4.61"/>
			<rect x="1659.62" y="950.45" class="st5" width="70.73" height="4.61"/>
			<rect x="1748.58" y="950.45" class="st5" width="70.74" height="4.61"/>
			<rect x="1837.54" y="950.45" class="st5" width="70.74" height="4.61"/>
			<rect x="1570.65" y="826.07" class="st5" width="70.74" height="4.61"/>
			<rect x="1659.61" y="826.07" class="st5" width="70.73" height="4.61"/>
			<rect x="1748.58" y="826.07" class="st5" width="70.74" height="4.61"/>
			<rect x="1837.54" y="826.07" class="st5" width="70.74" height="4.61"/>
			<path class="st6" d="M1656.77,847.16l0,76.33c0,5.63,4.56,10.19,10.19,10.19l7.14,0c5.63,0,10.19-4.56,10.19-10.19l0-76.33
				c0-5.63-4.56-10.19-10.19-10.19l-7.14,0C1661.34,836.97,1656.77,841.53,1656.77,847.16z"/>
			<path class="st5" d="M1661.42,851.8l0,76.33c0,5.63,4.56,10.19,10.19,10.19l7.14,0c5.63,0,10.19-4.56,10.19-10.19l0-76.33
				c0-5.63-4.56-10.19-10.19-10.19l-7.14,0C1665.98,841.61,1661.42,846.17,1661.42,851.8z"/>
			<rect x="1688.94" y="918.24" class="st5" width="229.1" height="1.83"/>
			<rect x="1688.94" y="913.83" class="st5" width="229.1" height="1.83"/>
			<rect x="1688.94" y="860.27" class="st5" width="229.1" height="1.83"/>
			<rect x="1679.95" y="929.32" class="st5" width="2.85" height="2.89"/>
			<rect x="1679.95" y="923.28" class="st5" width="2.85" height="2.89"/>
			<rect x="1679.95" y="917.24" class="st5" width="2.85" height="2.89"/>
			<rect x="1679.95" y="911.2" class="st5" width="2.85" height="2.89"/>
			<rect x="1679.95" y="847.72" class="st5" width="2.85" height="2.89"/>
			<rect x="1679.95" y="853.76" class="st5" width="2.85" height="2.89"/>
			<rect x="1679.95" y="859.79" class="st5" width="2.85" height="2.89"/>
			<rect x="1679.95" y="865.83" class="st5" width="2.85" height="2.89"/>
			<rect x="2341.66" y="920.06" class="st5" width="5.01" height="19.68"/>
			<rect x="2341.66" y="837.86" class="st5" width="5.01" height="19.68"/>
		</g>
		<path class="st7" d="M1544.02,854.23c1.41,39.53,1.41,79.64,0,119.18c-0.15,4.23-1.17,7.65-2.24,7.65c-17.42,0-34.85,0-52.27,0
			c-1.08,0-1.95-3.44-1.95-7.69c0-39.7,0-79.4,0-119.1c0-4.24,0.88-7.69,1.95-7.69c17.42,0,34.85,0,52.27,0
			C1542.86,846.58,1543.87,850,1544.02,854.23z"/>
		<g>
			<path class="st7" d="M1555.74,922.17l0-16.71c0-1.41,1.19-2.94,2.77-3.45l21.06-6.78l0,37.17l-21.06-6.78
				C1556.93,925.11,1555.74,923.59,1555.74,922.17z"/>
			<path class="st7" d="M1555.74,922.17l0-16.71c0-1.41-1.19-2.94-2.77-3.45l-21.06-6.78l0,37.17l21.06-6.78
				C1554.56,925.11,1555.74,923.59,1555.74,922.17z"/>
			<path class="st8" d="M1555.74,924c-5.62,0-10.18-4.56-10.18-10.18c0-5.62,4.56-10.18,10.18-10.18c5.62,0,10.18,4.56,10.18,10.18
				C1565.92,919.44,1561.36,924,1555.74,924z"/>
			<path class="st7" d="M1555.74,919.14c-2.94,0-5.32-2.38-5.32-5.32c0-2.94,2.38-5.32,5.32-5.32c2.94,0,5.32,2.38,5.32,5.32
				C1561.06,916.76,1558.68,919.14,1555.74,919.14z"/>
		</g>
		<g>
			<g>
				<path class="st7" d="M1584.2,883.9c-0.92,0.54-1.99-0.22-3.12-1.02c-0.38-0.27-0.96-0.68-1.32-0.85
					c-0.11,0.35-0.22,0.98-0.29,1.39c-0.24,1.42-0.46,2.76-1.54,3.07c-1.02,0.29-1.89-0.67-2.82-1.68c-0.3-0.33-0.77-0.84-1.08-1.09
					c-0.17,0.34-0.37,0.94-0.51,1.34c-0.46,1.34-0.88,2.61-1.97,2.77c-1.05,0.15-1.81-0.91-2.61-2.03
					c-0.26-0.36-0.65-0.91-0.93-1.19c-0.2,0.32-0.47,0.91-0.65,1.29c-0.58,1.28-1.14,2.49-2.22,2.55c-1.06,0.05-1.72-1.07-2.41-2.26
					c-0.22-0.37-0.56-0.95-0.8-1.25c-0.23,0.31-0.54,0.87-0.74,1.24c-0.67,1.23-1.31,2.38-2.38,2.36c-1.06-0.02-1.65-1.18-2.28-2.42
					c-0.19-0.39-0.49-0.97-0.71-1.29c-0.25,0.29-0.6,0.84-0.82,1.2c-0.74,1.18-1.44,2.29-2.51,2.21c-1.06-0.08-1.58-1.28-2.14-2.55
					c-0.17-0.39-0.43-0.98-0.63-1.31c-0.27,0.28-0.64,0.81-0.88,1.16c-0.8,1.13-1.56,2.2-2.61,2.07c-1.06-0.14-1.52-1.37-2-2.67
					c-0.15-0.4-0.37-0.99-0.56-1.33c-0.28,0.27-0.68,0.78-0.94,1.11c-0.86,1.09-1.66,2.12-2.7,1.93c-1.05-0.2-1.44-1.45-1.85-2.78
					c-0.12-0.4-0.31-1-0.47-1.35c-0.3,0.26-0.73,0.75-1.01,1.07c-0.91,1.04-1.77,2.02-2.8,1.77c-1.05-0.26-1.37-1.54-1.71-2.9
					c-0.1-0.41-0.25-1.02-0.39-1.37c-0.32,0.24-0.78,0.7-1.09,1.01c-0.97,0.97-1.89,1.89-2.9,1.57c-1.04-0.33-1.26-1.64-1.5-3.04
					c-0.07-0.41-0.18-1.02-0.29-1.39c-0.34,0.2-0.86,0.64-1.2,0.92c-1.09,0.92-2.04,1.71-3.01,1.31c-1.02-0.43-1.11-1.79-1.19-3.22
					c-0.03-0.53-0.09-1.42-0.21-1.64l0.99-1.49c0.89,0.45,0.96,1.64,1.05,3.02c0.02,0.42,0.06,1.06,0.14,1.46
					c0.32-0.21,0.76-0.58,1.06-0.83c1.06-0.89,2.07-1.74,3.06-1.38c0.96,0.35,1.16,1.55,1.39,2.93c0.07,0.42,0.18,1.04,0.3,1.42
					c0.3-0.24,0.73-0.66,1.01-0.94c0.98-0.98,1.9-1.9,2.92-1.62c0.99,0.27,1.29,1.46,1.63,2.84c0.1,0.41,0.25,1.02,0.4,1.39
					c0.29-0.25,0.69-0.71,0.96-1.02c0.91-1.04,1.77-2.02,2.8-1.8c1.01,0.21,1.38,1.39,1.8,2.75c0.12,0.4,0.31,0.99,0.47,1.34
					c0.28-0.27,0.65-0.75,0.91-1.07c0.85-1.08,1.66-2.11,2.69-1.94c1.03,0.16,1.48,1.37,1.96,2.65c0.14,0.39,0.36,0.98,0.55,1.32
					c0.27-0.29,0.63-0.8,0.87-1.14c0.79-1.12,1.54-2.18,2.58-2.07c1.04,0.11,1.56,1.3,2.1,2.56c0.17,0.38,0.42,0.95,0.62,1.29
					c0.25-0.3,0.58-0.83,0.81-1.19c0.73-1.16,1.42-2.25,2.46-2.2c1.04,0.05,1.63,1.21,2.25,2.44c0.19,0.37,0.46,0.92,0.68,1.24
					c0.23-0.31,0.54-0.87,0.74-1.24c0.66-1.19,1.27-2.32,2.31-2.34c1.05-0.02,1.71,1.11,2.41,2.3c0.21,0.35,0.51,0.87,0.75,1.18
					c0.21-0.34,0.47-0.91,0.65-1.29c0.59-1.29,1.09-2.39,2.11-2.49c1.05-0.1,1.81,0.97,2.61,2.09c0.24,0.33,0.58,0.82,0.85,1.1
					c0.18-0.36,0.38-0.96,0.52-1.36c0.45-1.32,0.83-2.46,1.83-2.67c1.03-0.21,1.91,0.75,2.84,1.78c0.28,0.3,0.7,0.76,0.98,1
					c0.04-0.32,0.16-1.01,0.23-1.46c0.22-1.35,0.42-2.52,1.33-2.89c0.96-0.39,2.02,0.37,3.14,1.16c0.43,0.31,1.15,0.82,1.4,0.86
					c-0.03-0.01-0.14,0-0.26,0.07L1584.2,883.9z"/>
			</g>
			<g>
				<path class="st7" d="M1584.2,943.74l-0.92,1.58c0.12,0.07,0.23,0.07,0.26,0.07c-0.25,0.04-0.97,0.56-1.4,0.86
					c-1.12,0.8-2.18,1.55-3.14,1.16c-0.91-0.37-1.11-1.53-1.33-2.89c-0.07-0.41-0.17-1.03-0.29-1.41c-0.29,0.25-0.67,0.67-0.92,0.95
					c-0.93,1.02-1.82,1.99-2.85,1.78c-0.99-0.2-1.37-1.35-1.82-2.67c-0.14-0.4-0.34-1.01-0.52-1.36c-0.26,0.29-0.61,0.77-0.85,1.1
					c-0.8,1.12-1.56,2.19-2.61,2.09c-1.02-0.1-1.53-1.2-2.11-2.49c-0.17-0.38-0.44-0.96-0.65-1.29c-0.24,0.31-0.55,0.83-0.75,1.18
					c-0.7,1.19-1.36,2.32-2.41,2.3c-1.03-0.01-1.65-1.14-2.31-2.34c-0.2-0.37-0.51-0.92-0.74-1.24c-0.22,0.32-0.5,0.87-0.68,1.24
					c-0.62,1.23-1.21,2.39-2.25,2.44c-1.04,0.05-1.73-1.05-2.45-2.2c-0.22-0.35-0.56-0.88-0.81-1.18c-0.2,0.33-0.45,0.91-0.62,1.28
					c-0.55,1.26-1.07,2.45-2.11,2.56s-1.79-0.95-2.58-2.08c-0.24-0.34-0.6-0.85-0.87-1.13c-0.18,0.35-0.4,0.93-0.55,1.32
					c-0.48,1.28-0.93,2.5-1.96,2.66c-1.03,0.16-1.84-0.86-2.69-1.94c-0.25-0.32-0.63-0.8-0.91-1.08c-0.16,0.36-0.35,0.95-0.47,1.34
					c-0.42,1.36-0.78,2.54-1.8,2.75c-1.03,0.21-1.89-0.76-2.81-1.8c-0.27-0.3-0.67-0.76-0.96-1.02c-0.15,0.37-0.3,0.98-0.4,1.39
					c-0.34,1.37-0.63,2.56-1.63,2.84c-1.02,0.28-1.94-0.64-2.92-1.62c-0.29-0.28-0.71-0.71-1.01-0.94c-0.12,0.38-0.22,1.01-0.3,1.42
					c-0.24,1.39-0.44,2.58-1.4,2.93c-0.99,0.36-2-0.49-3.06-1.38c-0.32-0.27-0.8-0.67-1.12-0.87c-0.01,0.32-0.06,1.03-0.08,1.5
					c-0.09,1.38-0.16,2.57-1.05,3.02l-0.83-1.63c-0.1,0.05-0.15,0.11-0.16,0.14c0.12-0.22,0.18-1.11,0.21-1.64
					c0.09-1.43,0.17-2.78,1.19-3.21c0.97-0.41,1.92,0.38,3.01,1.3c0.34,0.29,0.86,0.72,1.2,0.92c0.11-0.36,0.22-0.98,0.29-1.39
					c0.24-1.39,0.46-2.7,1.49-3.04c1.01-0.32,1.93,0.6,2.9,1.57c0.31,0.31,0.78,0.77,1.09,1.01c0.14-0.35,0.3-0.97,0.4-1.37
					c0.34-1.36,0.66-2.65,1.7-2.9c1.03-0.25,1.89,0.73,2.8,1.77c0.28,0.32,0.71,0.81,1.01,1.07c0.16-0.35,0.35-0.95,0.47-1.35
					c0.41-1.33,0.8-2.59,1.85-2.78c1.04-0.19,1.85,0.84,2.7,1.93c0.26,0.33,0.66,0.84,0.94,1.11c0.19-0.34,0.41-0.94,0.56-1.33
					c0.48-1.3,0.95-2.53,2-2.67c1.06-0.14,1.81,0.93,2.61,2.07c0.25,0.35,0.62,0.88,0.88,1.16c0.21-0.33,0.47-0.92,0.64-1.32
					c0.56-1.27,1.08-2.47,2.14-2.55c1.07-0.08,1.77,1.03,2.51,2.21c0.22,0.36,0.57,0.9,0.82,1.2c0.22-0.32,0.52-0.91,0.71-1.29
					c0.62-1.23,1.21-2.4,2.28-2.42c1.07-0.02,1.71,1.14,2.38,2.37c0.2,0.37,0.51,0.93,0.74,1.24c0.25-0.31,0.58-0.87,0.8-1.25
					c0.7-1.19,1.36-2.32,2.42-2.26c1.08,0.06,1.63,1.27,2.21,2.54c0.18,0.39,0.44,0.97,0.65,1.29c0.27-0.28,0.67-0.83,0.93-1.19
					c0.8-1.12,1.56-2.18,2.61-2.03c1.08,0.15,1.51,1.42,1.97,2.77c0.14,0.4,0.34,1,0.51,1.34c0.31-0.25,0.78-0.76,1.08-1.09
					c0.93-1.01,1.8-1.97,2.82-1.68c1.08,0.31,1.31,1.66,1.54,3.08c0.07,0.41,0.17,1.04,0.29,1.39c0.36-0.17,0.95-0.59,1.32-0.86
					C1582.21,943.96,1583.28,943.2,1584.2,943.74z"/>
			</g>
		</g>
		<path class="st7" d="M1122.97,854.24c1.41,39.53,1.41,79.64,0,119.18c-0.15,4.23-1.17,7.65-2.24,7.65c-17.42,0-34.85,0-52.27,0
			c-1.08,0-1.95-3.44-1.95-7.69c0-39.7,0-79.4,0-119.1c0-4.24,0.88-7.69,1.95-7.69c17.42,0,34.85,0,52.27,0
			C1121.8,846.59,1122.82,850.01,1122.97,854.24z"/>
		<path class="st7" d="M1203.07,854.24c1.41,39.53,1.41,79.64,0,119.18c-0.15,4.23-1.17,7.65-2.24,7.65c-17.42,0-34.85,0-52.27,0
			c-1.08,0-1.95-3.44-1.95-7.69c0-39.7,0-79.4,0-119.1c0-4.24,0.88-7.69,1.95-7.69c17.42,0,34.85,0,52.27,0
			C1201.91,846.59,1202.92,850.01,1203.07,854.24z"/>
		<g>
			<path class="st7" d="M1134.69,922.18l0-16.71c0-1.41,1.19-2.94,2.77-3.45l21.06-6.78l0,37.17l-21.06-6.78
				C1135.87,925.12,1134.69,923.59,1134.69,922.18z"/>
			<path class="st7" d="M1134.69,922.18l0-16.71c0-1.41-1.19-2.94-2.77-3.45l-21.06-6.78l0,37.17l21.06-6.78
				C1133.5,925.12,1134.69,923.59,1134.69,922.18z"/>
			<path class="st8" d="M1134.69,924c-5.62,0-10.18-4.56-10.18-10.18s4.56-10.18,10.18-10.18c5.62,0,10.18,4.56,10.18,10.18
				C1144.86,919.45,1140.31,924,1134.69,924z"/>
			<path class="st7" d="M1134.69,919.15c-2.94,0-5.32-2.38-5.32-5.32c0-2.94,2.38-5.32,5.32-5.32c2.94,0,5.32,2.38,5.32,5.32
				C1140,916.77,1137.62,919.15,1134.69,919.15z"/>
		</g>
		<g>
			<g>
				<path class="st7" d="M1163.15,883.91c-0.92,0.54-1.99-0.22-3.12-1.02c-0.38-0.27-0.96-0.68-1.32-0.85
					c-0.11,0.35-0.22,0.98-0.29,1.39c-0.24,1.42-0.46,2.76-1.54,3.07c-1.02,0.29-1.89-0.67-2.82-1.68c-0.3-0.33-0.77-0.84-1.08-1.09
					c-0.17,0.34-0.37,0.94-0.51,1.34c-0.46,1.34-0.88,2.61-1.97,2.77c-1.05,0.15-1.81-0.91-2.61-2.03
					c-0.26-0.36-0.65-0.91-0.93-1.19c-0.2,0.32-0.47,0.91-0.65,1.29c-0.58,1.28-1.14,2.49-2.22,2.55c-1.06,0.05-1.72-1.07-2.41-2.26
					c-0.22-0.37-0.56-0.95-0.8-1.25c-0.23,0.31-0.54,0.87-0.74,1.24c-0.67,1.23-1.31,2.38-2.38,2.36c-1.06-0.02-1.65-1.18-2.28-2.42
					c-0.19-0.39-0.49-0.97-0.71-1.29c-0.25,0.29-0.6,0.84-0.82,1.2c-0.74,1.18-1.44,2.29-2.51,2.21c-1.06-0.08-1.58-1.28-2.14-2.55
					c-0.17-0.39-0.43-0.98-0.64-1.31c-0.27,0.28-0.64,0.81-0.88,1.16c-0.8,1.13-1.56,2.2-2.61,2.07c-1.06-0.14-1.52-1.37-2-2.67
					c-0.15-0.4-0.37-0.99-0.56-1.33c-0.28,0.27-0.68,0.78-0.94,1.11c-0.86,1.09-1.66,2.12-2.7,1.93c-1.05-0.2-1.44-1.45-1.85-2.78
					c-0.12-0.4-0.31-1-0.47-1.35c-0.3,0.26-0.73,0.75-1.01,1.07c-0.91,1.04-1.77,2.02-2.8,1.77c-1.05-0.26-1.37-1.54-1.71-2.9
					c-0.1-0.41-0.25-1.02-0.39-1.37c-0.32,0.24-0.78,0.7-1.09,1.01c-0.97,0.97-1.89,1.89-2.9,1.57c-1.04-0.33-1.26-1.64-1.5-3.04
					c-0.07-0.41-0.18-1.02-0.29-1.39c-0.34,0.2-0.86,0.64-1.2,0.92c-1.09,0.92-2.04,1.71-3.01,1.31c-1.02-0.43-1.11-1.79-1.19-3.22
					c-0.03-0.53-0.09-1.42-0.21-1.64l0.99-1.49c0.89,0.45,0.96,1.64,1.05,3.02c0.02,0.42,0.06,1.06,0.14,1.46
					c0.32-0.21,0.76-0.58,1.06-0.83c1.06-0.89,2.07-1.74,3.06-1.38c0.96,0.35,1.16,1.55,1.4,2.93c0.07,0.42,0.18,1.04,0.3,1.42
					c0.3-0.24,0.73-0.66,1.01-0.94c0.98-0.98,1.91-1.9,2.92-1.62c0.99,0.27,1.29,1.46,1.63,2.84c0.1,0.41,0.25,1.02,0.4,1.39
					c0.29-0.25,0.69-0.71,0.96-1.02c0.91-1.04,1.77-2.02,2.8-1.8c1.01,0.21,1.38,1.39,1.8,2.75c0.12,0.4,0.31,0.99,0.47,1.34
					c0.28-0.27,0.65-0.75,0.91-1.07c0.85-1.08,1.66-2.11,2.69-1.94c1.03,0.16,1.48,1.37,1.96,2.65c0.14,0.39,0.36,0.98,0.55,1.32
					c0.27-0.29,0.63-0.8,0.87-1.14c0.79-1.12,1.54-2.18,2.58-2.07c1.04,0.11,1.56,1.3,2.1,2.56c0.17,0.38,0.42,0.95,0.62,1.29
					c0.25-0.3,0.58-0.83,0.81-1.19c0.73-1.16,1.42-2.25,2.46-2.2c1.04,0.05,1.63,1.21,2.25,2.44c0.19,0.37,0.46,0.92,0.68,1.24
					c0.23-0.31,0.54-0.87,0.74-1.24c0.66-1.19,1.27-2.32,2.31-2.34c1.05-0.02,1.71,1.11,2.41,2.3c0.21,0.35,0.51,0.87,0.75,1.18
					c0.21-0.34,0.47-0.91,0.65-1.29c0.59-1.29,1.09-2.39,2.11-2.49c1.05-0.1,1.81,0.97,2.61,2.09c0.24,0.33,0.58,0.82,0.85,1.1
					c0.18-0.36,0.38-0.96,0.52-1.36c0.45-1.32,0.83-2.46,1.83-2.67c1.03-0.21,1.91,0.75,2.84,1.78c0.28,0.3,0.7,0.76,0.98,1
					c0.04-0.32,0.16-1.01,0.23-1.46c0.22-1.35,0.42-2.52,1.33-2.89c0.96-0.39,2.02,0.37,3.14,1.16c0.43,0.31,1.15,0.82,1.4,0.86
					c-0.03-0.01-0.14,0-0.26,0.07L1163.15,883.91z"/>
			</g>
			<g>
				<path class="st7" d="M1163.15,943.75l-0.92,1.58c0.12,0.07,0.23,0.07,0.26,0.07c-0.25,0.04-0.97,0.56-1.4,0.86
					c-1.12,0.8-2.18,1.55-3.14,1.16c-0.91-0.37-1.11-1.53-1.33-2.89c-0.07-0.41-0.17-1.03-0.29-1.41c-0.29,0.25-0.67,0.67-0.92,0.95
					c-0.93,1.02-1.82,1.99-2.85,1.78c-0.99-0.2-1.37-1.35-1.82-2.67c-0.14-0.4-0.34-1.01-0.52-1.36c-0.26,0.29-0.61,0.77-0.85,1.1
					c-0.8,1.12-1.56,2.19-2.61,2.09c-1.02-0.1-1.53-1.2-2.11-2.49c-0.17-0.38-0.44-0.96-0.65-1.29c-0.24,0.31-0.55,0.83-0.75,1.18
					c-0.7,1.19-1.36,2.32-2.41,2.3c-1.03-0.01-1.65-1.14-2.31-2.34c-0.2-0.37-0.51-0.92-0.74-1.24c-0.22,0.32-0.5,0.87-0.68,1.24
					c-0.62,1.23-1.21,2.39-2.25,2.44c-1.04,0.05-1.73-1.05-2.45-2.2c-0.22-0.35-0.56-0.88-0.81-1.18c-0.2,0.33-0.45,0.91-0.62,1.28
					c-0.55,1.26-1.07,2.45-2.11,2.56c-1.04,0.11-1.79-0.95-2.58-2.08c-0.24-0.34-0.6-0.85-0.87-1.13c-0.18,0.35-0.4,0.93-0.55,1.32
					c-0.48,1.28-0.93,2.5-1.96,2.66c-1.03,0.16-1.84-0.86-2.69-1.94c-0.25-0.32-0.63-0.8-0.91-1.08c-0.16,0.36-0.35,0.95-0.47,1.34
					c-0.42,1.36-0.78,2.54-1.8,2.75c-1.03,0.21-1.89-0.76-2.81-1.8c-0.27-0.3-0.67-0.76-0.96-1.02c-0.15,0.37-0.3,0.98-0.4,1.39
					c-0.34,1.37-0.63,2.56-1.63,2.84c-1.02,0.28-1.94-0.64-2.92-1.62c-0.29-0.28-0.71-0.71-1.01-0.94c-0.12,0.38-0.22,1.01-0.3,1.42
					c-0.24,1.39-0.44,2.58-1.4,2.93c-0.99,0.36-2-0.49-3.06-1.38c-0.32-0.27-0.8-0.67-1.12-0.87c-0.01,0.32-0.06,1.03-0.08,1.5
					c-0.09,1.38-0.16,2.57-1.05,3.02l-0.83-1.63c-0.1,0.05-0.15,0.11-0.16,0.14c0.12-0.22,0.18-1.11,0.21-1.64
					c0.09-1.43,0.17-2.78,1.19-3.21c0.97-0.41,1.92,0.38,3.01,1.3c0.34,0.29,0.86,0.72,1.2,0.92c0.11-0.36,0.22-0.98,0.29-1.39
					c0.24-1.39,0.46-2.7,1.49-3.04c1.01-0.32,1.93,0.6,2.9,1.57c0.31,0.31,0.78,0.77,1.09,1.01c0.14-0.35,0.3-0.97,0.4-1.37
					c0.34-1.36,0.66-2.65,1.7-2.9c1.03-0.25,1.89,0.73,2.8,1.77c0.28,0.32,0.71,0.81,1.01,1.07c0.16-0.35,0.35-0.95,0.47-1.35
					c0.41-1.33,0.8-2.59,1.85-2.78c1.04-0.19,1.85,0.84,2.7,1.93c0.26,0.33,0.66,0.84,0.94,1.11c0.19-0.34,0.41-0.94,0.56-1.33
					c0.48-1.3,0.94-2.53,2-2.67c1.06-0.14,1.81,0.93,2.61,2.07c0.25,0.35,0.62,0.88,0.88,1.16c0.21-0.33,0.47-0.92,0.63-1.32
					c0.56-1.27,1.08-2.47,2.14-2.55c1.07-0.08,1.77,1.03,2.51,2.21c0.22,0.36,0.57,0.9,0.82,1.2c0.22-0.32,0.52-0.91,0.71-1.29
					c0.62-1.23,1.21-2.4,2.28-2.42c1.07-0.02,1.71,1.14,2.38,2.37c0.2,0.37,0.51,0.93,0.74,1.24c0.25-0.31,0.58-0.87,0.8-1.25
					c0.7-1.19,1.36-2.32,2.42-2.26c1.08,0.06,1.63,1.27,2.21,2.54c0.18,0.39,0.44,0.97,0.65,1.29c0.27-0.28,0.67-0.83,0.93-1.19
					c0.8-1.12,1.56-2.18,2.61-2.03c1.08,0.15,1.51,1.42,1.97,2.77c0.14,0.4,0.34,1,0.51,1.34c0.31-0.25,0.78-0.76,1.08-1.09
					c0.93-1.01,1.8-1.97,2.82-1.68c1.08,0.31,1.31,1.66,1.54,3.08c0.07,0.41,0.17,1.04,0.29,1.39c0.36-0.17,0.95-0.59,1.32-0.86
					C1161.16,943.97,1162.22,943.21,1163.15,943.75z"/>
			</g>
		</g>
		<path class="st9" d="M1115.45,865.24c0,32.8,0,65.59,0,98.38c-0.1,11.28-9.24,20.42-20.38,20.38c-158.64,0-233.23,0-391.87,0.01
			c-35.63,0-120.16-16.73-120.12-69.57l0,0c-0.04-52.84,82.56-69.57,120.12-69.57c158.64,0,233.23,0,391.87-0.01
			C1106.21,844.82,1115.35,853.96,1115.45,865.24z"/>
		<path class="st10" d="M1102.96,872.15c0,28.19,0,56.38,0,84.57c-0.08,9.7-7.94,17.56-17.52,17.52c-136.37,0-188.69,0-325.06,0.01
			c-31.12,1.36-103.29-14.38-103.26-59.8l0,0c-0.03-45.42,72.14-61.17,103.26-59.81c136.37,0,188.7,0,325.06-0.01
			C1095.02,854.59,1102.88,862.45,1102.96,872.15z"/>
		<path class="st7" d="M715.14,974.33c-24.3,0-73.55-22.88-73.55-59.89l-42.21,0C599.37,947.74,637.25,974.33,715.14,974.33z"/>
		<path class="st7" d="M715.14,854.56c-24.3,0-73.55,22.88-73.55,59.89l-42.21,0C599.37,881.15,637.25,854.56,715.14,854.56z"/>
		<path class="st11" d="M823.65,871.03l0,76.33c0,5.63,4.56,10.19,10.19,10.19l7.14,0c5.63,0,10.19-4.56,10.19-10.19l0-76.33
			c0-5.63-4.56-10.19-10.19-10.19l-7.14,0C828.21,860.84,823.65,865.4,823.65,871.03z"/>
		<path class="st12" d="M828.29,875.67l0,76.33c0,5.63,4.56,10.19,10.19,10.19l7.14,0c5.63,0,10.19-4.56,10.19-10.19l0-76.33
			c0-5.63-4.56-10.19-10.19-10.19l-7.14,0C832.85,865.48,828.29,870.04,828.29,875.67z"/>
		<rect x="855.81" y="942.12" class="st13" width="247.15" height="1.83"/>
		<rect x="855.81" y="884.15" class="st13" width="247.15" height="1.83"/>
		<rect x="846.82" y="953.19" class="st13" width="2.85" height="2.89"/>
		<rect x="846.82" y="947.15" class="st13" width="2.85" height="2.89"/>
		<rect x="846.82" y="941.11" class="st13" width="2.85" height="2.89"/>
		<rect x="846.82" y="935.08" class="st13" width="2.85" height="2.89"/>
		<rect x="846.82" y="871.59" class="st13" width="2.85" height="2.89"/>
		<rect x="846.82" y="877.63" class="st13" width="2.85" height="2.89"/>
		<rect x="846.82" y="883.67" class="st13" width="2.85" height="2.89"/>
		<rect x="846.82" y="889.71" class="st13" width="2.85" height="2.89"/>
		<path class="st14" d="M630.39,968.38c2.69,0.98,7.94-1.42,6.92-3.87c-1.02-2.44-23-7.74-25.04-6.72
			C610.24,958.82,628.15,967.57,630.39,968.38z"/>
		<path class="st14" d="M630.39,860.5c2.69-0.98,7.94,1.43,6.92,3.87c-1.02,2.44-23,7.74-25.04,6.72
			C610.24,870.07,628.15,861.32,630.39,860.5z"/>
		<path class="st9" d="M1174.31,984.01l342.92-0.01c11.26,0,20.38-9.13,20.38-20.38l0-98.38c0-11.26-9.13-20.38-20.38-20.38
			l-342.92,0.01c-11.14-0.04-20.28,9.1-20.38,20.38l0,98.38C1154.02,974.91,1163.16,984.05,1174.31,984.01z"/>
		<path class="st10" d="M1183.58,974.24l326.49-0.01c11.03,0,19.96-9.13,19.96-20.38l0-78.85c0-11.26-8.94-20.38-19.97-20.38
			l-326.49,0.01c-9.38-0.04-17.08,7.82-17.16,17.52l0,84.57C1166.5,966.42,1174.19,974.27,1183.58,974.24z"/>
		<path class="st11" d="M1268.77,871.02l0,76.33c0,5.63,4.56,10.19,10.19,10.19l7.14,0c5.63,0,10.19-4.56,10.19-10.19l0-76.33
			c0-5.63-4.56-10.19-10.19-10.19l-7.14,0C1273.33,860.83,1268.77,865.39,1268.77,871.02z"/>
		<path class="st12" d="M1273.41,875.66l0,76.33c0,5.63,4.56,10.19,10.19,10.19l7.14,0c5.63,0,10.19-4.56,10.19-10.19l0-76.33
			c0-5.63-4.56-10.19-10.19-10.19l-7.14,0C1277.98,865.47,1273.41,870.03,1273.41,875.66z"/>
		<rect x="1300.94" y="942.11" class="st13" width="229.1" height="1.83"/>
		<rect x="1300.94" y="884.14" class="st13" width="229.1" height="1.83"/>
		<rect x="1291.95" y="953.18" class="st13" width="2.85" height="2.89"/>
		<rect x="1291.95" y="947.14" class="st13" width="2.85" height="2.89"/>
		<rect x="1291.95" y="941.1" class="st13" width="2.85" height="2.89"/>
		<rect x="1291.95" y="935.07" class="st13" width="2.85" height="2.89"/>
		<rect x="1291.95" y="871.58" class="st13" width="2.85" height="2.89"/>
		<rect x="1291.95" y="877.62" class="st13" width="2.85" height="2.89"/>
		<rect x="1291.95" y="883.66" class="st13" width="2.85" height="2.89"/>
		<rect x="1291.95" y="889.7" class="st13" width="2.85" height="2.89"/>
		<path class="st7" d="M1964.28,854.22c1.41,39.53,1.41,79.64,0,119.18c-0.15,4.23-1.17,7.65-2.24,7.65c-17.42,0-34.85,0-52.27,0
			c-1.08,0-1.95-3.44-1.95-7.69c0-39.7,0-79.4,0-119.1c0-4.24,0.88-7.69,1.95-7.69c17.42,0,34.85,0,52.27,0
			C1963.12,846.58,1964.13,850,1964.28,854.22z"/>
		<path class="st7" d="M2044.39,854.22c1.41,39.53,1.41,79.64,0,119.18c-0.15,4.23-1.17,7.65-2.24,7.65c-17.42,0-34.85,0-52.27,0
			c-1.08,0-1.95-3.44-1.95-7.69c0-39.7,0-79.4,0-119.1c0-4.24,0.88-7.69,1.95-7.69c17.42,0,34.85,0,52.27,0
			C2043.22,846.57,2044.24,849.99,2044.39,854.22z"/>
		<g>
			<path class="st7" d="M1976,922.17l0-16.71c0-1.41,1.19-2.94,2.77-3.45l21.06-6.78l0,37.17l-21.06-6.78
				C1977.19,925.1,1976,923.58,1976,922.17z"/>
			<path class="st7" d="M1976,922.17l0-16.71c0-1.41-1.19-2.94-2.77-3.45l-21.06-6.78l0,37.17l21.06-6.78
				C1974.82,925.11,1976,923.58,1976,922.17z"/>
			<path class="st8" d="M1976,923.99c-5.62,0-10.18-4.56-10.18-10.18c0-5.62,4.56-10.18,10.18-10.18c5.62,0,10.18,4.56,10.18,10.18
				S1981.62,923.99,1976,923.99z"/>
			<path class="st7" d="M1976,919.13c-2.94,0-5.32-2.38-5.32-5.32c0-2.94,2.38-5.32,5.32-5.32c2.94,0,5.32,2.38,5.32,5.32
				C1981.32,916.75,1978.94,919.13,1976,919.13z"/>
		</g>
		<g>
			<g>
				<path class="st7" d="M2004.46,883.89c-0.92,0.54-1.99-0.22-3.12-1.02c-0.38-0.27-0.96-0.68-1.32-0.85
					c-0.11,0.35-0.22,0.98-0.29,1.39c-0.24,1.42-0.46,2.76-1.54,3.07c-1.02,0.29-1.89-0.67-2.82-1.68c-0.3-0.33-0.77-0.84-1.08-1.09
					c-0.17,0.34-0.37,0.94-0.51,1.34c-0.46,1.34-0.88,2.61-1.97,2.77c-1.05,0.15-1.81-0.91-2.61-2.03
					c-0.26-0.36-0.65-0.91-0.93-1.19c-0.2,0.32-0.47,0.91-0.65,1.29c-0.58,1.28-1.14,2.49-2.22,2.55c-1.06,0.05-1.72-1.07-2.41-2.26
					c-0.22-0.37-0.56-0.95-0.8-1.25c-0.23,0.31-0.54,0.87-0.74,1.24c-0.67,1.23-1.31,2.38-2.38,2.36c-1.06-0.02-1.65-1.18-2.28-2.42
					c-0.19-0.39-0.49-0.97-0.71-1.29c-0.25,0.29-0.6,0.84-0.82,1.2c-0.74,1.18-1.44,2.29-2.51,2.21c-1.06-0.08-1.58-1.28-2.14-2.55
					c-0.17-0.39-0.43-0.98-0.64-1.31c-0.27,0.28-0.64,0.81-0.88,1.16c-0.8,1.13-1.56,2.2-2.61,2.07c-1.06-0.14-1.52-1.37-2-2.67
					c-0.15-0.4-0.37-0.99-0.56-1.33c-0.28,0.27-0.68,0.78-0.94,1.11c-0.86,1.09-1.66,2.12-2.7,1.93c-1.05-0.2-1.44-1.45-1.85-2.78
					c-0.12-0.4-0.31-1-0.47-1.35c-0.3,0.26-0.73,0.75-1.01,1.07c-0.91,1.04-1.77,2.02-2.8,1.77c-1.05-0.26-1.37-1.54-1.7-2.9
					c-0.1-0.41-0.25-1.02-0.39-1.37c-0.32,0.24-0.78,0.7-1.09,1.01c-0.97,0.97-1.89,1.89-2.9,1.57c-1.04-0.33-1.26-1.64-1.5-3.04
					c-0.07-0.41-0.18-1.02-0.29-1.39c-0.34,0.2-0.86,0.64-1.2,0.92c-1.09,0.92-2.04,1.71-3.01,1.31c-1.02-0.43-1.11-1.79-1.19-3.22
					c-0.03-0.53-0.09-1.42-0.21-1.64l0.99-1.49c0.89,0.45,0.96,1.64,1.05,3.02c0.02,0.42,0.06,1.06,0.14,1.46
					c0.32-0.21,0.76-0.58,1.06-0.83c1.06-0.89,2.07-1.74,3.06-1.38c0.96,0.35,1.16,1.55,1.39,2.93c0.07,0.42,0.18,1.04,0.3,1.42
					c0.3-0.23,0.73-0.66,1.01-0.94c0.98-0.98,1.9-1.9,2.92-1.62c0.99,0.27,1.29,1.46,1.63,2.84c0.1,0.41,0.25,1.02,0.4,1.39
					c0.29-0.25,0.69-0.71,0.96-1.02c0.91-1.04,1.77-2.02,2.8-1.8c1.01,0.21,1.38,1.39,1.8,2.75c0.12,0.4,0.31,0.99,0.47,1.34
					c0.28-0.27,0.65-0.75,0.91-1.07c0.85-1.08,1.66-2.11,2.69-1.94c1.03,0.16,1.48,1.37,1.96,2.65c0.14,0.39,0.36,0.98,0.55,1.32
					c0.27-0.29,0.63-0.8,0.87-1.14c0.79-1.12,1.54-2.18,2.58-2.07c1.04,0.11,1.56,1.3,2.1,2.56c0.17,0.38,0.42,0.95,0.62,1.29
					c0.25-0.3,0.58-0.83,0.81-1.19c0.73-1.16,1.42-2.25,2.46-2.2c1.04,0.05,1.63,1.21,2.25,2.44c0.19,0.37,0.46,0.92,0.68,1.24
					c0.23-0.31,0.54-0.87,0.74-1.24c0.66-1.19,1.27-2.32,2.31-2.34c1.05-0.02,1.71,1.11,2.41,2.3c0.21,0.35,0.51,0.87,0.75,1.18
					c0.21-0.34,0.47-0.91,0.65-1.29c0.59-1.29,1.09-2.39,2.11-2.49c1.05-0.1,1.81,0.97,2.61,2.09c0.24,0.33,0.58,0.82,0.85,1.1
					c0.18-0.36,0.38-0.96,0.52-1.36c0.45-1.32,0.83-2.46,1.83-2.67c1.03-0.21,1.91,0.75,2.84,1.78c0.28,0.3,0.7,0.76,0.98,1
					c0.04-0.32,0.16-1.01,0.23-1.46c0.22-1.35,0.42-2.52,1.33-2.89c0.96-0.39,2.02,0.37,3.14,1.16c0.43,0.31,1.15,0.82,1.4,0.86
					c-0.03-0.01-0.14,0-0.26,0.07L2004.46,883.89z"/>
			</g>
			<g>
				<path class="st7" d="M2004.46,943.73l-0.92,1.58c0.12,0.07,0.23,0.07,0.26,0.07c-0.25,0.04-0.97,0.56-1.4,0.86
					c-1.12,0.8-2.18,1.55-3.14,1.16c-0.91-0.37-1.11-1.53-1.33-2.89c-0.07-0.41-0.17-1.03-0.29-1.41c-0.29,0.25-0.67,0.67-0.92,0.95
					c-0.93,1.02-1.82,1.99-2.85,1.78c-0.99-0.2-1.37-1.35-1.82-2.67c-0.14-0.4-0.34-1.01-0.52-1.36c-0.26,0.29-0.61,0.77-0.85,1.1
					c-0.8,1.12-1.56,2.19-2.61,2.09c-1.02-0.1-1.53-1.2-2.11-2.49c-0.17-0.38-0.44-0.96-0.65-1.29c-0.24,0.31-0.55,0.83-0.75,1.18
					c-0.7,1.19-1.36,2.32-2.41,2.3c-1.03-0.01-1.65-1.14-2.31-2.34c-0.2-0.37-0.51-0.92-0.74-1.24c-0.22,0.32-0.5,0.87-0.68,1.24
					c-0.62,1.23-1.21,2.39-2.25,2.44c-1.04,0.05-1.73-1.05-2.45-2.2c-0.22-0.35-0.56-0.88-0.81-1.18c-0.2,0.33-0.45,0.91-0.62,1.28
					c-0.55,1.26-1.07,2.45-2.11,2.56s-1.79-0.95-2.58-2.08c-0.24-0.33-0.6-0.85-0.87-1.13c-0.18,0.35-0.4,0.93-0.55,1.32
					c-0.48,1.28-0.93,2.5-1.96,2.66c-1.03,0.16-1.84-0.86-2.69-1.94c-0.25-0.32-0.63-0.8-0.91-1.08c-0.16,0.36-0.35,0.95-0.47,1.34
					c-0.42,1.36-0.78,2.54-1.8,2.75c-1.03,0.21-1.89-0.76-2.81-1.8c-0.27-0.3-0.67-0.76-0.96-1.02c-0.15,0.37-0.3,0.98-0.4,1.39
					c-0.34,1.37-0.63,2.56-1.63,2.84c-1.02,0.28-1.94-0.64-2.92-1.62c-0.29-0.28-0.71-0.71-1.01-0.94c-0.12,0.38-0.22,1.01-0.3,1.42
					c-0.24,1.39-0.44,2.58-1.4,2.93c-0.99,0.36-2-0.49-3.06-1.38c-0.32-0.27-0.8-0.67-1.12-0.87c-0.01,0.32-0.06,1.03-0.08,1.5
					c-0.09,1.38-0.16,2.57-1.05,3.02l-0.83-1.63c-0.1,0.05-0.15,0.11-0.16,0.14c0.12-0.22,0.18-1.11,0.21-1.64
					c0.09-1.43,0.17-2.78,1.19-3.21c0.97-0.41,1.92,0.38,3.01,1.3c0.34,0.29,0.86,0.72,1.2,0.92c0.11-0.36,0.22-0.98,0.29-1.39
					c0.24-1.39,0.46-2.7,1.49-3.04c1.01-0.32,1.93,0.6,2.9,1.57c0.31,0.31,0.78,0.77,1.09,1.01c0.14-0.35,0.3-0.97,0.4-1.37
					c0.34-1.36,0.66-2.65,1.7-2.9c1.03-0.25,1.89,0.73,2.8,1.77c0.28,0.32,0.71,0.81,1.01,1.07c0.16-0.35,0.35-0.95,0.47-1.35
					c0.41-1.33,0.8-2.59,1.85-2.78c1.04-0.19,1.85,0.84,2.7,1.93c0.26,0.34,0.66,0.84,0.94,1.11c0.19-0.34,0.41-0.94,0.56-1.33
					c0.48-1.3,0.95-2.53,2-2.67c1.06-0.14,1.81,0.93,2.61,2.07c0.25,0.35,0.62,0.88,0.88,1.16c0.21-0.33,0.47-0.92,0.63-1.32
					c0.56-1.27,1.08-2.47,2.14-2.55c1.07-0.08,1.77,1.03,2.51,2.21c0.22,0.36,0.57,0.9,0.82,1.2c0.22-0.32,0.52-0.91,0.71-1.29
					c0.62-1.23,1.21-2.4,2.28-2.42c1.07-0.02,1.71,1.14,2.38,2.37c0.2,0.37,0.51,0.93,0.74,1.24c0.25-0.31,0.58-0.87,0.8-1.25
					c0.7-1.19,1.36-2.32,2.42-2.26c1.08,0.06,1.63,1.27,2.21,2.54c0.18,0.39,0.44,0.97,0.65,1.29c0.27-0.28,0.67-0.83,0.93-1.19
					c0.8-1.12,1.56-2.18,2.61-2.03c1.08,0.15,1.51,1.42,1.97,2.77c0.14,0.4,0.34,1,0.51,1.34c0.31-0.25,0.78-0.76,1.08-1.09
					c0.93-1.01,1.8-1.97,2.82-1.68c1.08,0.31,1.31,1.66,1.54,3.08c0.07,0.41,0.17,1.04,0.29,1.39c0.36-0.17,0.95-0.59,1.32-0.86
					C2002.47,943.95,2003.54,943.19,2004.46,943.73z"/>
			</g>
		</g>
		<path class="st9" d="M2015.62,983.99l342.92-0.01c11.26,0,20.38-9.13,20.38-20.38l0-98.38c0-11.26-9.13-20.38-20.38-20.38
			l-342.92,0.01c-11.14-0.04-20.28,9.1-20.38,20.38l0,98.38C1995.34,974.89,2004.48,984.03,2015.62,983.99z"/>
		<path class="st10" d="M2024.89,974.22l326.49-0.01c11.03,0,19.96-9.13,19.96-20.38l0-78.85c0-11.26-8.94-20.38-19.96-20.38
			l-326.49,0.01c-9.38-0.04-17.08,7.82-17.16,17.52l0,84.57C2007.81,966.4,2015.51,974.26,2024.89,974.22z"/>
		<path class="st11" d="M2110.09,871l0,76.33c0,5.63,4.56,10.19,10.19,10.19l7.14,0c5.63,0,10.19-4.56,10.19-10.19l0-76.33
			c0-5.63-4.56-10.19-10.19-10.19l-7.14,0C2114.65,860.81,2110.09,865.37,2110.09,871z"/>
		<path class="st12" d="M2114.73,875.65l0,76.33c0,5.63,4.56,10.19,10.19,10.19l7.14,0c5.63,0,10.19-4.56,10.19-10.19l0-76.33
			c0-5.63-4.56-10.19-10.19-10.19l-7.14,0C2119.29,865.45,2114.73,870.02,2114.73,875.65z"/>
		<rect x="2142.26" y="942.09" class="st13" width="229.1" height="1.83"/>
		<rect x="2142.25" y="884.12" class="st13" width="229.1" height="1.83"/>
		<rect x="2133.26" y="953.16" class="st13" width="2.85" height="2.89"/>
		<rect x="2133.26" y="947.13" class="st13" width="2.85" height="2.89"/>
		<rect x="2133.26" y="941.09" class="st13" width="2.85" height="2.89"/>
		<rect x="2133.26" y="935.05" class="st13" width="2.85" height="2.89"/>
		<rect x="2133.26" y="871.57" class="st13" width="2.85" height="2.89"/>
		<rect x="2133.26" y="877.6" class="st13" width="2.85" height="2.89"/>
		<rect x="2133.26" y="883.64" class="st13" width="2.85" height="2.89"/>
		<rect x="2133.26" y="889.68" class="st13" width="2.85" height="2.89"/>
		<g>
			<path class="st7" d="M1623.33,854.23c1.41,39.53,1.41,79.64,0,119.18c-0.15,4.23-1.17,7.65-2.24,7.65c-17.42,0-34.85,0-52.27,0
				c-1.08,0-1.95-3.44-1.95-7.69c0-39.7,0-79.4,0-119.1c0-4.24,0.88-7.69,1.95-7.69c17.42,0,34.85,0,52.27,0
				C1622.17,846.58,1623.18,850,1623.33,854.23z"/>
		</g>
		<path class="st9" d="M1594.57,984l342.92-0.01c11.26,0,20.38-9.13,20.38-20.38l0-98.38c0-11.26-9.13-20.38-20.38-20.38
			l-342.92,0.01c-11.14-0.04-20.28,9.1-20.38,20.38l0,98.38C1574.28,974.9,1583.42,984.04,1594.57,984z"/>
		<path class="st10" d="M1603.84,974.23l326.49-0.01c11.03,0,19.96-9.13,19.96-20.38l0-78.85c0-11.26-8.94-20.38-19.96-20.38
			l-326.49,0.01c-9.38-0.04-17.08,7.82-17.16,17.52l0,84.57C1586.76,966.41,1594.45,974.27,1603.84,974.23z"/>
		<path class="st11" d="M1689.03,871.01l0,76.33c0,5.63,4.56,10.19,10.19,10.19l7.14,0c5.63,0,10.19-4.56,10.19-10.19l0-76.33
			c0-5.63-4.56-10.19-10.19-10.19l-7.14,0C1693.59,860.82,1689.03,865.38,1689.03,871.01z"/>
		<path class="st12" d="M1693.67,875.65l0,76.33c0,5.63,4.56,10.19,10.19,10.19l7.14,0c5.63,0,10.19-4.56,10.19-10.19l0-76.33
			c0-5.63-4.56-10.19-10.19-10.19l-7.14,0C1698.24,865.46,1693.67,870.03,1693.67,875.65z"/>
		<rect x="1721.2" y="942.1" class="st13" width="229.1" height="1.83"/>
		<rect x="1721.2" y="884.13" class="st13" width="229.1" height="1.83"/>
		<rect x="1712.21" y="953.17" class="st13" width="2.85" height="2.89"/>
		<rect x="1712.21" y="947.13" class="st13" width="2.85" height="2.89"/>
		<rect x="1712.21" y="941.1" class="st13" width="2.85" height="2.89"/>
		<rect x="1712.21" y="935.06" class="st13" width="2.85" height="2.89"/>
		<rect x="1712.21" y="871.57" class="st13" width="2.85" height="2.89"/>
		<rect x="1712.21" y="877.61" class="st13" width="2.85" height="2.89"/>
		<rect x="1712.21" y="883.65" class="st13" width="2.85" height="2.89"/>
		<rect x="1712.21" y="889.69" class="st13" width="2.85" height="2.89"/>
	</g>
</g>
<g>
	<path class="st15" d="M1537.26,1015.21l4.37,16.03h-205.79c-11.96,0-46.24,8.05-49.31,19.61v0c-10.06,37.89-10.06,77.75,0,115.63
		l0,0c3.07,11.56,37.35,19.61,49.31,19.61h205.79l-4.37,16.03c-0.32,1.18,0.57,2.35,1.8,2.35c3.07,0,5.91-1.65,7.42-4.33l7.95-14.05
		h54.61c16.2,0,46.65-9.87,52.66-24.91l0,0c13.46-33.71,13.46-71.31,0-105.03v0c-6.01-15.04-36.45-24.91-52.66-24.91h-54.61
		l-7.95-14.05c-1.51-2.67-4.35-4.33-7.42-4.33C1537.83,1012.86,1536.94,1014.03,1537.26,1015.21z"/>
	<g>
		<g>
			<path class="st16" d="M1304.78,1189.45L1304.78,1189.45c-10.06-37.89-10.06-77.75,0-115.63l0,0
				c3.07-11.56,37.35-19.61,49.31-19.61h273.21c16.2,0,46.65,9.87,52.66,24.91h0c13.46,33.71,13.46,71.31,0,105.03h0
				c-6.01,15.04-36.45,24.91-52.66,24.91h-273.21C1342.13,1209.05,1307.85,1201.01,1304.78,1189.45z"/>
			<path class="st17" d="M1313.46,1186.79L1313.46,1186.79c-9.6-36.15-9.6-74.17,0-110.32l0,0c2.93-11.03,35.64-18.71,47.05-18.71
				h260.65c15.46,0,44.5,9.41,50.23,23.77h0c12.85,32.16,12.85,68.03,0,100.2h0c-5.73,14.35-34.78,23.77-50.23,23.77h-260.65
				C1349.1,1205.49,1316.39,1197.82,1313.46,1186.79z"/>
			<path class="st16" d="M1573.67,1055.94l-8.93-15.79c-1.51-2.67-4.35-4.33-7.42-4.33l0,0c-1.23,0-2.12,1.17-1.8,2.35l4.84,17.76
				H1573.67z"/>
			<path class="st16" d="M1573.67,1207.32l-8.93,15.79c-1.51,2.67-4.35,4.33-7.42,4.33l0,0c-1.23,0-2.12-1.17-1.8-2.35l4.84-17.76
				H1573.67z"/>
		</g>
		<g>
			<path class="st7" d="M1466.96,1062.84c-0.48,0-0.96,0-1.45,0c-38.18,0-76.29,2.38-76.29,2.38s27.79,9.53,38.11,9.53h37.38
				C1465.65,1070.81,1466.42,1066.83,1466.96,1062.84z"/>
			<path class="st7" d="M1469.13,1074.75h34.83c5.95,0,37.85-9.53,37.85-9.53s-33.5-2.09-69.15-2.35
				C1471.67,1066.88,1470.45,1070.83,1469.13,1074.75z"/>
			<path class="st7" d="M1466.96,1200.42c-0.48,0-0.96,0-1.45,0c-38.18,0-76.29-2.38-76.29-2.38s27.79-9.53,38.11-9.53h37.38
				C1465.65,1192.45,1466.42,1196.43,1466.96,1200.42z"/>
			<path class="st7" d="M1469.13,1188.51h34.83c5.95,0,37.85,9.53,37.85,9.53s-33.5,2.09-69.15,2.35
				C1471.67,1196.38,1470.45,1192.43,1469.13,1188.51z"/>
			<path class="st7" d="M1514.28,1079.12l55.18-14.29c0,0,21.04,15.09,21.04,66.81s-21.04,66.81-21.04,66.81l-55.18-14.29
				c0,0,6.75-28.81,6.75-52.51S1514.28,1079.12,1514.28,1079.12z M1392.11,1179.67c-2-8.66-6.06-30.76-6.06-48.04
				s4.06-39.38,6.06-48.04c0.54-2.32-1.18-4.55-3.56-4.64l-50.33-1.75c-1.38-0.05-2.69,0.66-3.39,1.85
				c-11.96,20.2-10.31,52.57-10.31,52.57s-1.66,32.37,10.31,52.57c0.71,1.19,2.01,1.9,3.39,1.85l50.33-1.75
				C1390.93,1184.22,1392.65,1181.99,1392.11,1179.67z"/>
			<path class="st7" d="M1652.2,1064.82c2.95,11.83,16.44,19.49,19.95,19.01c-1.87-3.42-4.17-6.57-6.99-9.39
				C1661.48,1070.76,1657.07,1067.55,1652.2,1064.82z"/>
			<path class="st7" d="M1652.2,1198.44c2.95-11.83,16.44-19.49,19.95-19.01c-1.87,3.42-4.17,6.57-6.99,9.39
				C1661.48,1192.5,1657.07,1195.71,1652.2,1198.44z"/>
		</g>
		<g>
			<path class="st18" d="M1310.23,1083.8c1.53-4.39,4.25-8.46,7.87-11.79c0.94-0.87,1.97-1.7,2.56-2.78
				c0.41-0.74,0.55-1.64,0.3-2.42c-7.29,4.66-12.36,11.79-13.6,19.98c0.03,0,0.06,0.01,0.1,0.01
				C1309.03,1086.76,1309.77,1085.12,1310.23,1083.8z"/>
			<path class="st18" d="M1310.23,1179.46c1.53,4.39,4.25,8.46,7.87,11.79c0.94,0.87,1.97,1.7,2.56,2.78
				c0.41,0.74,0.55,1.64,0.3,2.42c-7.29-4.65-12.36-11.79-13.6-19.98c0.03,0,0.06-0.01,0.1-0.01
				C1309.03,1176.5,1309.77,1178.14,1310.23,1179.46z"/>
		</g>
		<path class="st7" d="M1677.45,1111.25v40.76c0,4.93,0.6,9.71,1.72,14.29c3.53-5.19,5.43-11.32,5.43-17.62v-34.1
			c0-6.3-1.9-12.43-5.43-17.62C1678.06,1101.54,1677.45,1106.33,1677.45,1111.25z"/>
	</g>
</g>
<path class="st19" d="M898.83,292.76c-6.64,0-13.03,0.98-19.12,2.7c-14.55-35.63-49.53-60.75-90.4-60.75
	c-48.35,0-88.47,35.16-96.24,81.3c-17.29,4.64-30.04,20.37-30.04,39.12c0,22.39,18.15,40.54,40.54,40.54c3.56,0,7-0.51,10.29-1.37
	c17.91,21.78,45.05,35.67,75.45,35.67c21.73,0,41.79-7.11,58.01-19.11c12.84,13.84,31.14,22.56,51.51,22.56
	c38.84,0,70.33-31.49,70.33-70.33C969.16,324.25,937.67,292.76,898.83,292.76z"/>
<path class="st19" d="M1308.9,262.83c-5.84,0-11.26,1.78-15.76,4.81c-10.38-10.89-25.02-17.68-41.25-17.68
	c-0.35,0-0.7,0.02-1.05,0.03c-5.08-26.28-28.2-46.14-55.97-46.14c-22.4,0-41.76,12.92-51.09,31.7
	c-11.07-7.83-24.56-12.46-39.16-12.46c-23.24,0-43.74,11.67-55.98,29.47c-5.05-4.74-11.82-7.66-19.29-7.66
	c-15.58,0-28.21,12.63-28.21,28.21c0,0.3,0.04,0.58,0.04,0.88c-9.47,4.55-16.02,14.2-16.02,25.41c0,15.58,12.63,28.21,28.21,28.21
	c3.71,0,7.25-0.74,10.49-2.04c5.17,5.83,12.69,9.52,21.09,9.52c2.48,0,4.87-0.35,7.16-0.95c12.46,15.15,31.35,24.82,52.49,24.82
	c15.12,0,29.08-4.95,40.36-13.3c8.94,9.63,21.66,15.69,35.84,15.69c12.48,0,23.83-4.71,32.47-12.4
	c10.15,9.35,23.71,15.06,38.6,15.06c27.3,0,50.11-19.2,55.7-44.82c0.44,0.02,0.88,0.07,1.32,0.07c15.58,0,28.21-12.63,28.21-28.21
	S1324.48,262.83,1308.9,262.83z"/>
<g>
	<polygon class="st20" points="1491.16,714.16 1874.49,124.03 2248.73,714.16 	"/>
	<polygon class="st21" points="2248.73,714.16 1874.49,124.03 1935.58,384.21 1935.58,586.88 1959.32,485.32 2013.05,714.16 	"/>
	<path class="st22" d="M1869.94,266.12l12.69-34.26l20.37,13.62l13.89-33.86l18.69,9.34v-0.61l-61.09-96.33l-81.58,125.58
		l28.8-18.99l7.99,18.99C1848.15,256.83,1869.94,266.12,1869.94,266.12z"/>
	<polygon class="st19" points="1916.89,211.62 1935.58,220.97 1935.58,220.36 1874.49,124.03 1903.01,245.48 	"/>
</g>
<g>
	<g>
		<rect x="2204.92" y="521.98" class="st23" width="10.56" height="244.31"/>
		<rect x="2188.02" y="521.98" class="st24" width="16.9" height="244.31"/>
	</g>
	<g>
		<polygon class="st25" points="2201.75,470.32 2201.75,573.89 2139.63,573.89 		"/>
		<polygon class="st26" points="2263.87,573.89 2201.75,573.89 2201.75,470.32 		"/>
	</g>
	<g>
		<polygon class="st25" points="2201.75,556.65 2201.75,660.22 2113.48,660.22 		"/>
		<polygon class="st26" points="2290.02,660.22 2201.75,660.22 2201.75,556.65 		"/>
	</g>
	<g>
		<polygon class="st25" points="2201.75,422.16 2201.75,542.9 2170.32,542.9 		"/>
		<polygon class="st26" points="2233.17,542.9 2201.75,542.9 2201.75,422.16 		"/>
	</g>
	<g>
		<polygon class="st25" points="2201.75,599.85 2201.75,720.59 2088.78,720.59 		"/>
		<polygon class="st26" points="2314.72,720.59 2201.75,720.59 2201.75,599.85 		"/>
	</g>
	<g>
		<polygon class="st25" points="2201.75,464.2 2201.75,584.93 2151.98,584.93 		"/>
		<polygon class="st26" points="2251.52,584.93 2201.75,584.93 2201.75,464.2 		"/>
	</g>
	<g>
		<polygon class="st25" points="2201.75,503.23 2201.75,623.96 2151.98,623.96 		"/>
		<polygon class="st26" points="2251.52,623.96 2201.75,623.96 2201.75,503.23 		"/>
	</g>
</g>
<g>
	<g>
		<rect x="2027.56" y="596.7" class="st23" width="8.84" height="169.59"/>
		<rect x="2013.42" y="596.7" class="st24" width="14.14" height="169.59"/>
	</g>
	<g>
		<polygon class="st25" points="2024.91,508.14 2024.91,683.15 1976.42,683.15 		"/>
		<polygon class="st26" points="2073.39,683.15 2024.91,683.15 2024.91,508.14 		"/>
	</g>
	<g>
		<polygon class="st25" points="2024.91,508.14 2024.91,683.15 1976.42,683.15 		"/>
		<polygon class="st26" points="2073.39,683.15 2024.91,683.15 2024.91,508.14 		"/>
	</g>
	<g>
		<polygon class="st25" points="2024.91,478.37 2024.91,653.38 1976.42,653.38 		"/>
		<polygon class="st26" points="2073.39,653.38 2024.91,653.38 2024.91,478.37 		"/>
	</g>
</g>
<polygon class="st27" points="1485.8,246.87 1538.92,234.36 1538.92,193.84 1485.8,206.35 "/>
<rect x="1480.3" y="206.32" class="st28" width="5.43" height="82.8"/>
<rect x="1116.26" y="487.8" class="st28" width="733.36" height="28.23"/>
<rect x="1125.41" y="516.03" class="st29" width="715.05" height="235.9"/>
<rect x="1484.39" y="516.03" class="st29" width="356.08" height="235.9"/>
<rect x="1116.26" y="751.93" class="st28" width="733.36" height="14.36"/>
<rect x="1301.06" y="435.42" class="st30" width="363.75" height="316.5"/>
<rect x="1301.06" y="435.42" class="st29" width="363.75" height="37.68"/>
<rect x="1403.94" y="435.42" class="st30" width="260.87" height="316.5"/>
<rect x="1403.94" y="435.42" class="st29" width="260.87" height="37.68"/>
<g>
	<rect x="1432.97" y="485.49" class="st19" width="99.52" height="75.58"/>
	<polygon class="st31" points="1532.5,561.07 1454.03,561.07 1493.26,485.49 1532.5,485.49 	"/>
	<rect x="1432.97" y="561.07" class="st32" width="99.52" height="4.98"/>
</g>
<rect x="1325.03" y="487.98" class="st19" width="48.87" height="75.58"/>
<polygon class="st31" points="1373.91,563.56 1335.37,563.56 1354.64,487.98 1373.91,487.98 "/>
<rect x="1325.03" y="563.56" class="st32" width="48.87" height="4.98"/>
<rect x="1591.97" y="487.98" class="st19" width="48.87" height="75.58"/>
<polygon class="st31" points="1640.84,563.56 1602.3,563.56 1621.57,487.98 1640.84,487.98 "/>
<rect x="1591.97" y="563.56" class="st32" width="48.87" height="4.98"/>
<rect x="1325.03" y="599.02" class="st19" width="48.87" height="75.58"/>
<polygon class="st31" points="1373.91,674.6 1335.37,674.6 1354.64,599.02 1373.91,599.02 "/>
<rect x="1325.03" y="674.6" class="st32" width="48.87" height="4.98"/>
<rect x="1591.97" y="599.02" class="st19" width="48.87" height="75.58"/>
<polygon class="st31" points="1640.84,674.6 1602.3,674.6 1621.57,599.02 1640.84,599.02 "/>
<rect x="1591.97" y="674.6" class="st32" width="48.87" height="4.98"/>
<g>
	<g>
		<rect x="1428.05" y="639.8" class="st19" width="108.43" height="105.06"/>
		<polygon class="st31" points="1536.48,744.86 1450.99,744.86 1493.73,639.8 1536.48,639.8 		"/>
	</g>
	<rect x="1428.05" y="744.86" class="st32" width="108.43" height="6.86"/>
	<rect x="1428.05" y="633.98" class="st32" width="108.43" height="5.82"/>
	
		<rect x="1478.67" y="691.78" transform="matrix(-1.836970e-16 1 -1 -1.836970e-16 2230.3872 -844.6917)" class="st32" width="117.74" height="2.13"/>
	
		<rect x="1368.27" y="691.79" transform="matrix(-1.836970e-16 1 -1 -1.836970e-16 2119.9893 -734.2936)" class="st32" width="117.74" height="2.13"/>
	
		<rect x="1424.46" y="691.78" transform="matrix(-1.836970e-16 1 -1 -1.836970e-16 2176.1741 -790.4785)" class="st32" width="117.74" height="2.13"/>
	<g>
		<rect x="1470.26" y="695.16" class="st32" width="6.71" height="3.93"/>
		<rect x="1489.68" y="695.16" class="st32" width="6.71" height="3.93"/>
	</g>
</g>
<rect x="1691.6" y="718.87" class="st32" width="48.87" height="4.98"/>
<rect x="1226.11" y="532.25" class="st19" width="48.88" height="75.58"/>
<polygon class="st31" points="1274.99,607.83 1236.45,607.83 1255.72,532.25 1274.99,532.25 "/>
<rect x="1226.11" y="607.83" class="st32" width="48.88" height="4.98"/>
<rect x="1226.11" y="643.29" class="st19" width="48.88" height="75.58"/>
<polygon class="st31" points="1274.99,718.87 1236.45,718.87 1255.72,643.29 1274.99,643.29 "/>
<rect x="1226.11" y="718.87" class="st32" width="48.88" height="4.98"/>
<rect x="1155.89" y="532.25" class="st19" width="48.87" height="75.58"/>
<polygon class="st31" points="1204.76,607.83 1166.23,607.83 1185.5,532.25 1204.76,532.25 "/>
<rect x="1155.89" y="607.83" class="st32" width="48.87" height="4.98"/>
<rect x="1155.89" y="643.29" class="st19" width="48.87" height="75.58"/>
<polygon class="st31" points="1204.76,718.87 1166.23,718.87 1185.5,643.29 1204.76,643.29 "/>
<rect x="1155.89" y="718.87" class="st32" width="48.87" height="4.98"/>
<rect x="1761.82" y="532.25" class="st19" width="48.88" height="75.58"/>
<polygon class="st31" points="1810.69,607.83 1772.16,607.83 1791.42,532.25 1810.69,532.25 "/>
<rect x="1761.82" y="607.83" class="st32" width="48.88" height="4.98"/>
<rect x="1761.82" y="643.29" class="st19" width="48.88" height="75.58"/>
<polygon class="st31" points="1810.69,718.87 1772.16,718.87 1791.42,643.29 1810.69,643.29 "/>
<rect x="1761.82" y="718.87" class="st32" width="48.88" height="4.98"/>
<rect x="1691.6" y="532.25" class="st19" width="48.87" height="75.58"/>
<polygon class="st31" points="1740.47,607.83 1701.93,607.83 1721.2,532.25 1740.47,532.25 "/>
<rect x="1691.6" y="643.29" class="st19" width="48.87" height="75.58"/>
<polygon class="st31" points="1740.47,718.87 1701.93,718.87 1721.2,643.29 1740.47,643.29 "/>
<rect x="1691.6" y="607.83" class="st32" width="48.87" height="4.98"/>
<g>
	<rect x="1432.97" y="511.01" class="st32" width="99.52" height="4.98"/>
</g>
<rect x="1325.03" y="513.5" class="st32" width="48.87" height="4.98"/>
<rect x="1591.97" y="513.5" class="st32" width="48.87" height="4.98"/>
<rect x="1325.03" y="624.53" class="st32" width="48.87" height="4.98"/>
<rect x="1591.97" y="624.53" class="st32" width="48.87" height="4.98"/>
<rect x="1691.6" y="668.81" class="st32" width="48.87" height="4.98"/>
<rect x="1226.11" y="557.77" class="st32" width="48.88" height="4.98"/>
<rect x="1226.11" y="668.81" class="st32" width="48.88" height="4.98"/>
<rect x="1155.89" y="557.77" class="st32" width="48.87" height="4.98"/>
<rect x="1155.89" y="668.81" class="st32" width="48.87" height="4.98"/>
<rect x="1761.82" y="557.77" class="st32" width="48.88" height="4.98"/>
<rect x="1761.82" y="668.81" class="st32" width="48.88" height="4.98"/>
<rect x="1691.6" y="557.77" class="st32" width="48.87" height="4.98"/>
<polygon class="st28" points="1699.57,403.79 1483.77,272.83 1271.44,403.79 1271.44,446.32 1699.57,446.32 "/>
<polygon class="st30" points="1283.15,429.07 1283.15,416.64 1483.82,292.88 1687.87,416.7 1687.87,429.07 "/>
<path class="st10" d="M1525.17,365.76c0-21.9-17.76-39.66-39.66-39.66c-21.9,0-39.66,17.76-39.66,39.66
	c0,21.9,17.76,39.66,39.66,39.66C1507.41,405.42,1525.17,387.66,1525.17,365.76z"/>
<g>
	<path d="M1485.51,400.98c-19.42,0-35.23-15.8-35.23-35.23c0-19.43,15.81-35.23,35.23-35.23c19.43,0,35.23,15.8,35.23,35.23
		C1520.74,385.18,1504.94,400.98,1485.51,400.98z M1485.51,334.57c-17.2,0-31.19,13.99-31.19,31.19c0,17.2,13.99,31.19,31.19,31.19
		c17.2,0,31.19-13.99,31.19-31.19C1516.7,348.56,1502.71,334.57,1485.51,334.57z"/>
</g>
<path d="M1507.46,363.74h-19.93v-21.89c0-1.11-0.9-2.02-2.02-2.02s-2.02,0.9-2.02,2.02v23.91c0,1.11,0.9,2.02,2.02,2.02h21.95
	c1.11,0,2.02-0.9,2.02-2.02S1508.57,363.74,1507.46,363.74z"/>
<g>
	<g>
		<g>
			<g>
				<rect x="1556.54" y="605.83" class="st33" width="16.77" height="137.85"/>
			</g>
			<g>
				<rect x="1564.93" y="605.83" class="st28" width="8.39" height="137.85"/>
			</g>
			<rect x="1547.51" y="743.68" class="st33" width="34.83" height="9.21"/>
			<g>
				<rect x="1569.12" y="743.68" class="st33" width="13.22" height="9.21"/>
			</g>
			<rect x="1551.05" y="739.91" class="st33" width="27.75" height="5.66"/>
			<g>
				<rect x="1566.11" y="739.91" class="st33" width="12.7" height="5.66"/>
			</g>
			<path class="st33" d="M1559.51,612.82c0-3.86-3.13-6.99-6.99-6.99c-3.86,0-6.99,3.13-6.99,6.99c0,3.86,3.13,6.99,6.99,6.99
				C1556.38,619.81,1559.51,616.68,1559.51,612.82z"/>
			<rect x="1552.52" y="605.83" class="st33" width="24.82" height="4.7"/>
			<g>
				<rect x="1567.46" y="605.83" class="st33" width="9.88" height="4.7"/>
			</g>
			<g>
				<path class="st33" d="M1584.33,612.82c0-3.86-3.13-6.99-6.99-6.99c-3.86,0-6.99,3.13-6.99,6.99c0,3.86,3.13,6.99,6.99,6.99
					C1581.2,619.81,1584.33,616.68,1584.33,612.82z"/>
			</g>
		</g>
	</g>
	<g>
		<g>
			<g>
				<rect x="1391.36" y="605.83" class="st33" width="16.77" height="137.85"/>
			</g>
			<g>
				<rect x="1399.75" y="605.83" class="st28" width="8.39" height="137.85"/>
			</g>
			<rect x="1382.33" y="743.68" class="st33" width="34.83" height="9.21"/>
			<g>
				<rect x="1403.94" y="743.68" class="st33" width="13.22" height="9.21"/>
			</g>
			<rect x="1385.88" y="739.91" class="st33" width="27.75" height="5.66"/>
			<g>
				<rect x="1400.93" y="739.91" class="st33" width="12.7" height="5.66"/>
			</g>
			<path class="st33" d="M1394.33,612.82c0-3.86-3.13-6.99-6.99-6.99c-3.86,0-6.99,3.13-6.99,6.99c0,3.86,3.13,6.99,6.99,6.99
				C1391.2,619.81,1394.33,616.68,1394.33,612.82z"/>
			<rect x="1387.34" y="605.83" class="st33" width="24.82" height="4.7"/>
			<g>
				<rect x="1402.28" y="605.83" class="st33" width="9.88" height="4.7"/>
			</g>
			<g>
				<path class="st33" d="M1419.15,612.82c0-3.86-3.13-6.99-6.99-6.99c-3.86,0-6.99,3.13-6.99,6.99c0,3.86,3.13,6.99,6.99,6.99
					C1416.02,619.81,1419.15,616.68,1419.15,612.82z"/>
			</g>
		</g>
	</g>
</g>
<g>
	<g>
		<g>
			<g>
				<rect x="1556.54" y="446.76" class="st33" width="16.77" height="137.85"/>
			</g>
			<g>
				<rect x="1564.93" y="446.76" class="st28" width="8.39" height="137.85"/>
			</g>
			<rect x="1547.51" y="584.61" class="st33" width="34.83" height="9.21"/>
			<g>
				<rect x="1569.12" y="584.61" class="st33" width="13.22" height="9.21"/>
			</g>
			<rect x="1551.05" y="580.84" class="st33" width="27.75" height="5.66"/>
			<g>
				<rect x="1566.11" y="580.84" class="st33" width="12.7" height="5.66"/>
			</g>
			<path class="st33" d="M1559.51,453.75c0-3.86-3.13-6.99-6.99-6.99c-3.86,0-6.99,3.13-6.99,6.99s3.13,6.99,6.99,6.99
				C1556.38,460.74,1559.51,457.61,1559.51,453.75z"/>
			<rect x="1552.52" y="446.76" class="st33" width="24.82" height="4.7"/>
			<g>
				<rect x="1567.46" y="446.76" class="st33" width="9.88" height="4.7"/>
			</g>
			<g>
				<path class="st33" d="M1584.33,453.75c0-3.86-3.13-6.99-6.99-6.99c-3.86,0-6.99,3.13-6.99,6.99s3.13,6.99,6.99,6.99
					C1581.2,460.74,1584.33,457.61,1584.33,453.75z"/>
			</g>
		</g>
	</g>
	<g>
		<g>
			<g>
				<rect x="1391.36" y="446.76" class="st33" width="16.77" height="137.85"/>
			</g>
			<g>
				<rect x="1399.75" y="446.76" class="st28" width="8.39" height="137.85"/>
			</g>
			<rect x="1382.33" y="584.61" class="st33" width="34.83" height="9.21"/>
			<g>
				<rect x="1403.94" y="584.61" class="st33" width="13.22" height="9.21"/>
			</g>
			<rect x="1385.88" y="580.84" class="st33" width="27.75" height="5.66"/>
			<g>
				<rect x="1400.93" y="580.84" class="st33" width="12.7" height="5.66"/>
			</g>
			<path class="st33" d="M1394.33,453.75c0-3.86-3.13-6.99-6.99-6.99c-3.86,0-6.99,3.13-6.99,6.99s3.13,6.99,6.99,6.99
				C1391.2,460.74,1394.33,457.61,1394.33,453.75z"/>
			<rect x="1387.34" y="446.76" class="st33" width="24.82" height="4.7"/>
			<g>
				<rect x="1402.28" y="446.76" class="st33" width="9.88" height="4.7"/>
			</g>
			<g>
				<path class="st33" d="M1419.15,453.75c0-3.86-3.13-6.99-6.99-6.99c-3.86,0-6.99,3.13-6.99,6.99s3.13,6.99,6.99,6.99
					C1416.02,460.74,1419.15,457.61,1419.15,453.75z"/>
			</g>
		</g>
	</g>
</g>
<rect x="1376.01" y="586.29" class="st33" width="212.65" height="19.54"/>
<rect x="1376.01" y="596.06" class="st28" width="212.65" height="9.77"/>
<polygon class="st10" points="1508.41,235.49 1516.31,233.23 1516.31,205.22 1508.41,207.48 "/>
<polygon class="st10" points="1498.73,219.43 1498.73,227.33 1526,221.28 1526,213.38 "/>
<g>
	<g>
		<rect x="988.33" y="528.77" class="st23" width="7.25" height="237.52"/>
		<rect x="995.58" y="528.77" class="st24" width="11.59" height="237.52"/>
	</g>
	<g>
		
			<rect x="956.8" y="541.94" transform="matrix(0.7745 -0.6326 0.6326 0.7745 -162.5984 741.3842)" class="st23" width="3.47" height="113.61"/>
		
			<rect x="959.25" y="539.09" transform="matrix(0.7746 -0.6324 0.6324 0.7746 -160.0408 742.705)" class="st24" width="5.54" height="113.61"/>
	</g>
	<g>
		
			<rect x="978.01" y="627.82" transform="matrix(0.857 -0.5153 0.5153 0.857 -198.0412 598.7165)" class="st23" width="3.47" height="56.74"/>
		
			<rect x="980.83" y="625.49" transform="matrix(0.8571 -0.5151 0.5151 0.8571 -196.2793 600.0807)" class="st24" width="5.55" height="56.74"/>
	</g>
	<g>
		
			<rect x="991.36" y="596.54" transform="matrix(0.7747 -0.6324 0.6324 0.7747 -146.2778 786.0309)" class="st23" width="76.88" height="3.47"/>
		
			<rect x="994.21" y="598.99" transform="matrix(0.7746 -0.6325 0.6325 0.7746 -147.8118 788.8147)" class="st24" width="76.88" height="5.55"/>
	</g>
	<g>
		<path class="st25" d="M998.14,550.69V442.16c-42.46,0-76.88,24.29-76.88,54.26C921.26,526.39,955.68,550.69,998.14,550.69z"/>
		<path class="st26" d="M1075.02,496.42c0-29.97-34.42-54.26-76.88-54.26v108.52C1040.6,550.69,1075.02,526.39,1075.02,496.42z"/>
	</g>
	<g>
		<path class="st25" d="M1056.87,581.99v-57.27c-22.41,0-40.57,12.82-40.57,28.63C1016.3,569.17,1034.47,581.99,1056.87,581.99z"/>
		<path class="st26" d="M1097.45,553.35c0-15.81-18.17-28.63-40.57-28.63v57.27C1079.28,581.99,1097.45,569.17,1097.45,553.35z"/>
	</g>
	<g>
		<path class="st25" d="M921.26,560.03v-57.27c-22.41,0-40.57,12.82-40.57,28.63C880.69,547.21,898.85,560.03,921.26,560.03z"/>
		<path class="st26" d="M961.83,531.39c0-15.81-18.16-28.63-40.57-28.63v57.27C943.67,560.03,961.83,547.21,961.83,531.39z"/>
	</g>
	<g>
		<path class="st25" d="M969.31,640.8v-57.27c-22.41,0-40.57,12.82-40.57,28.63C928.74,627.98,946.9,640.8,969.31,640.8z"/>
		<path class="st26" d="M1009.88,612.16c0-15.81-18.16-28.63-40.57-28.63v57.27C991.72,640.8,1009.88,627.98,1009.88,612.16z"/>
	</g>
</g>
<g>
	<g>
		<rect x="794.04" y="571.57" class="st23" width="5.94" height="194.72"/>
		<rect x="799.98" y="571.57" class="st24" width="9.51" height="194.72"/>
	</g>
	<g>
		
			<rect x="769.29" y="611.4" transform="matrix(0.7746 -0.6324 0.6324 0.7746 -242.4157 635.7067)" class="st23" width="2.84" height="93.13"/>
		
			<rect x="771.3" y="609.07" transform="matrix(0.7747 -0.6323 0.6323 0.7747 -240.291 636.8359)" class="st24" width="4.55" height="93.14"/>
	</g>
	<g>
		
			<rect x="785.58" y="633.28" transform="matrix(0.8571 -0.5151 0.5151 0.8571 -225.7436 499.1919)" class="st23" width="2.84" height="46.52"/>
		
			<rect x="787.89" y="631.37" transform="matrix(0.8571 -0.5151 0.5151 0.8571 -224.3063 500.5184)" class="st24" width="4.55" height="46.52"/>
	</g>
	<g>
		
			<rect x="795.09" y="646.4" transform="matrix(0.7748 -0.6322 0.6322 0.7748 -223.4045 668.5057)" class="st23" width="63.02" height="2.84"/>
		
			<rect x="797.42" y="648.41" transform="matrix(0.7744 -0.6327 0.6327 0.7744 -224.6761 671.2139)" class="st24" width="63.02" height="4.55"/>
	</g>
	<g>
		<path class="st25" d="M797.01,653.6V524.59c-50.47,0-91.39,28.88-91.39,64.5C705.62,624.72,746.54,653.6,797.01,653.6z"/>
		<path class="st26" d="M888.41,589.09c0-35.62-40.92-64.5-91.4-64.5V653.6C847.49,653.6,888.41,624.72,888.41,589.09z"/>
	</g>
</g>
<g>
	<path d="M569.68,1312.43v61.16H408.86v76.79h139.98v56.85H408.86v136.36h-72.26v-331.15H569.68z"/>
	<path d="M848.5,1582.43v61.16H614.28v-331.15h72.26v270H848.5z"/>
	<path d="M1070.68,1311.75l125.71,331.83h-75.88l-26.27-74.29H971.24l-26.95,74.29h-74.52l126.16-331.83H1070.68z M1076.57,1516.29
		l-43.94-124.8l-44.17,124.8H1076.57z"/>
	<path d="M1465.25,1312.43v61.16h-100.57v269.99h-72.26v-269.99h-100.12v-61.16H1465.25z"/>
	<path d="M1732.21,1616.4v27.18h-217.9v-331.15h31.48v303.97H1732.21z"/>
	<path d="M1920.73,1311.3l132.28,332.28h-35.33l-39.87-104.42h-151.53l-40.77,104.42h-33.75l133.86-332.28H1920.73z M1968.07,1513.8
		l-65.69-169.2l-66.59,169.2H1968.07z"/>
	<path d="M2338.64,1312.43v331.15h-35.11l-195.7-282.45v282.45h-30.13v-331.15h34.88l195.93,284.26v-284.26H2338.64z"/>
	<path d="M2391.87,1312.43h115.29c24.01,0,44.25,2.64,60.7,7.93c16.46,5.29,32.24,14.72,47.34,28.31s26.27,31.71,33.52,54.36
		c7.4,22.65,11.1,45.61,11.1,68.86c0,58.74-15.48,103.74-46.43,135c-13.44,13.29-27.97,22.73-43.61,28.31
		c-15.62,5.58-35.67,8.38-60.13,8.38h-117.78V1312.43z M2423.35,1339.61v276.79h78.82c22.96,0,41-2.12,54.13-6.34
		c13.14-4.22,24.84-11.63,35.11-22.2c24.61-25.06,36.92-61.76,36.92-110.08c0-48.32-11.7-84.34-35.11-108.04
		c-20.39-20.08-49.07-30.13-86.07-30.13H2423.35z"/>
</g>
</svg>
